<?xml version="1.0" encoding="UTF-8"?>
<svg version="1.1" xmlns="http://www.w3.org/2000/svg" width="211" height="211" viewBox="0 -0.5 211 211">
<path d="M0 0 C38.28 0 76.56 0 116 0 C117.98 5.445 117.98 5.445 120 11 C103.5 11.33 87 11.66 70 12 C71.65 13.65 73.3 15.3 75 17 C75.99 17.99 75.99 17.99 77 19 C79.05907197 19.32997447 79.05907197 19.32997447 81.44970703 19.31884766 C82.37051056 19.33871735 83.29131409 19.35858704 84.24002075 19.37905884 C85.23589203 19.39061005 86.23176331 19.40216125 87.2578125 19.4140625 C88.78509476 19.44311172 88.78509476 19.44311172 90.3432312 19.4727478 C93.60373489 19.53265355 96.86427367 19.57897299 100.125 19.625 C102.33204687 19.66316965 104.53907869 19.70222077 106.74609375 19.7421875 C112.16394059 19.83836414 117.58185717 19.92235447 123 20 C123.99 25.445 123.99 25.445 125 31 C112.13 31.33 99.26 31.66 86 32 C86.99 33.98 87.98 35.96 89 38 C89 38.66 89 39.32 89 40 C101.21 40 113.42 40 126 40 C126 43.63 126 47.26 126 51 C115.11 51 104.22 51 93 51 C93.99 54.96 93.99 54.96 95 59 C109.85 59.495 109.85 59.495 125 60 C124.34 63.63 123.68 67.26 123 71 C113.76 71 104.52 71 95 71 C95 73.97 95 76.94 95 80 C103.25 80 111.5 80 120 80 C117 89 117 89 116 91 C104.615 91.495 104.615 91.495 93 92 C92.34 94.31 91.68 96.62 91 99 C97.27 99.33 103.54 99.66 110 100 C106.81222707 107.96943231 106.81222707 107.96943231 104 111 C100.5595004 111.74467702 97.24931081 111.56613883 93.75 111.375 C92.34621094 111.33439453 92.34621094 111.33439453 90.9140625 111.29296875 C88.6070276 111.22234523 86.30469231 111.12380579 84 111 C83.71125 111.763125 83.4225 112.52625 83.125 113.3125 C82 116 82 116 80 119 C86.93 119.495 86.93 119.495 94 120 C91.34715319 125.30569362 88.31873677 128.31906917 83 131 C79.20780237 131.45125496 75.50425322 131.50088075 71.6875 131.55859375 C65.9237674 132.24853208 62.22430845 135.19315262 58 139 C60.64 139.33 63.28 139.66 66 140 C52.20166515 151.46528306 28.06975956 152.24268138 11 151 C-1.02110665 149.7856149 -15.22536933 147.330973 -25 140 C-16.75 140 -8.5 140 0 140 C0 137.03 0 134.06 0 131 C-1.21469971 131.04713135 -2.42939941 131.0942627 -3.6809082 131.14282227 C-8.23334914 131.30702676 -12.78553499 131.40950326 -17.34008789 131.49438477 C-19.30245118 131.53935391 -21.26451792 131.60055519 -23.22583008 131.67895508 C-41.60164442 132.39453146 -41.60164442 132.39453146 -48.85546875 126.58984375 C-51.35620117 124.14428711 -51.35620117 124.14428711 -53 122 C-53 121.34 -53 120.68 -53 120 C-35.51 120 -18.02 120 0 120 C0 117.03 0 114.06 0 111 C-0.77594513 111.0199855 -1.55189026 111.03997101 -2.35134888 111.06056213 C-9.67793364 111.24118873 -17.00343383 111.37805802 -24.33166695 111.46630955 C-28.09903336 111.5132089 -31.86455494 111.57676496 -35.63085938 111.67895508 C-39.2685125 111.77703242 -42.9043966 111.83061222 -46.54327011 111.85389519 C-47.92855565 111.87047655 -49.31374828 111.90286198 -50.69827652 111.95157051 C-61.53162383 112.31739955 -61.53162383 112.31739955 -65.22161865 109.00680542 C-69 103.51449857 -69 103.51449857 -69 100 C-33.03 100 2.94 100 40 100 C40 83.83 40 67.66 40 51 C26.8 51 13.6 51 0 51 C0 34.17 0 17.34 0 0 Z " fill="#0065AC" transform="translate(85,59)"/>
<path d="M0 0 C8.09298505 -0.20904389 16.18483276 -0.36869321 24.27985477 -0.46630955 C28.03935009 -0.51317574 31.79699166 -0.57667029 35.55541992 -0.67895508 C39.18659424 -0.77715191 42.81599284 -0.83063711 46.44839287 -0.85389519 C47.8300618 -0.87045529 49.2116393 -0.90279872 50.59254646 -0.95157051 C61.38028905 -1.31723153 61.38028905 -1.31723153 65.45089722 1.99319458 C70 7.66860918 70 7.66860918 70 11 C46.9 11 23.8 11 0 11 C0 7.37 0 3.74 0 0 Z " fill="#0065AC" transform="translate(125,39)"/>
<path d="M0 0 C1.26126709 0.00684814 2.52253418 0.01369629 3.82202148 0.02075195 C18.02945057 0.2635285 32.10883813 2.49076806 44.75 9.4375 C45.245 10.4275 45.245 10.4275 45.75 11.4375 C15.72 11.4375 -14.31 11.4375 -45.25 11.4375 C-42.05424579 8.24174579 -40.13437852 7.42042876 -35.9375 5.9375 C-34.82761719 5.5353125 -33.71773437 5.133125 -32.57421875 4.71875 C-21.78376759 1.33380025 -11.28803376 -0.09513885 0 0 Z " fill="#0065AC" transform="translate(105.25,-0.4375)"/>
<path d="M0 0 C6.08292885 -0.22389036 12.16341895 -0.38644129 18.24951172 -0.49438477 C20.31569227 -0.53941401 22.38158976 -0.60066113 24.44677734 -0.67895508 C43.81964088 -1.39456303 43.81964088 -1.39456303 50.4140625 4.41015625 C54 8.40752281 54 8.40752281 54 11 C36.18 11 18.36 11 0 11 C0 7.37 0 3.74 0 0 Z " fill="#0065AC" transform="translate(125,20)"/>
<path d="M0 0 C5.95881843 -0.22369947 11.91515786 -0.38635071 17.87719727 -0.49438477 C19.9017192 -0.53944592 21.92595147 -0.60071767 23.94946289 -0.67895508 C40.74801065 -1.31184791 40.74801065 -1.31184791 46.38720703 1.97314453 C48.67647469 4.21216763 50.44535531 6.20596596 52 9 C52 9.66 52 10.32 52 11 C36.16 11 20.32 11 4 11 C0 2 0 2 0 0 Z " fill="#0065AC" transform="translate(6,139)"/>
<path d="M0 0 C11.88 0 23.76 0 36 0 C41 9 41 9 41 11 C28.13 11 15.26 11 2 11 C1.34 7.37 0.68 3.74 0 0 Z " fill="#0065AC" transform="translate(1,119)"/>
<path d="M0 0 C1.29349365 0.00523682 2.5869873 0.01047363 3.91967773 0.01586914 C4.9496714 0.01799156 4.9496714 0.01799156 6.00047302 0.02015686 C8.20144949 0.0257706 10.40232557 0.03832532 12.60327148 0.05102539 C14.09220231 0.05603863 15.58113473 0.06060184 17.07006836 0.06469727 C20.72700223 0.07574446 24.38387707 0.09301826 28.04077148 0.11352539 C28.70077148 3.74352539 29.36077148 7.37352539 30.04077148 11.11352539 C18.82077148 11.11352539 7.60077148 11.11352539 -3.95922852 11.11352539 C-3.95922852 0.15188856 -3.95922852 0.15188856 0 0 Z " fill="#0065AC" transform="translate(3.959228515625,98.886474609375)"/>
<path d="M0 0 C9.57 0 19.14 0 29 0 C29 9 29 9 28 11 C18.1 11 8.2 11 -2 11 C-1.34 7.37 -0.68 3.74 0 0 Z " fill="#0065AC" transform="translate(3,79)"/>
<path d="M0 0 C1.45695606 0.0351679 2.91399408 0.06709729 4.37109375 0.09570312 C7.91578515 0.17227929 11.45736102 0.29275317 15 0.4375 C14.26700684 1.02072021 13.53401367 1.60394043 12.77880859 2.20483398 C11.09701127 3.55609356 9.43257871 4.92994197 7.80322266 6.34399414 C0.79281909 11.96728422 -4.84339107 12.32044393 -13.625 11.875 C-14.81996094 11.84341797 -16.01492187 11.81183594 -17.24609375 11.77929688 C-20.16669977 11.69751991 -23.081992 11.58298473 -26 11.4375 C-20.60828017 -0.40432642 -11.54613164 -0.48600123 0 0 Z " fill="#0065AC" transform="translate(58,19.5625)"/>
<path d="M0 0 C8.91 0 17.82 0 27 0 C25 9 25 9 24 11 C14.76 11 5.52 11 -4 11 C-2.68 7.37 -1.36 3.74 0 0 Z " fill="#0065AC" transform="translate(10,59)"/>
<path d="M0 0 C1.21751953 0.02707031 2.43503906 0.05414063 3.68945312 0.08203125 C6.69060498 0.15264659 9.68814712 0.25123028 12.6875 0.375 C12.38360352 1.13216309 12.07970703 1.88932617 11.76660156 2.66943359 C10.97172165 4.66238817 10.19242783 6.66157645 9.421875 8.6640625 C6.08653338 11.97081548 4.97107881 11.81414474 0.390625 11.9609375 C-2.09442502 11.92107039 -4.57912429 11.84953921 -7.0625 11.75 C-8.33222656 11.72292969 -9.60195313 11.69585937 -10.91015625 11.66796875 C-14.04597906 11.5972359 -17.17838663 11.49856492 -20.3125 11.375 C-15.90869169 -0.00443098 -11.77143499 -0.49390636 0 0 Z " fill="#0065AC" transform="translate(36.3125,38.625)"/>
</svg>
