<?xml version="1.0" encoding="UTF-8"?>
<svg version="1.1" xmlns="http://www.w3.org/2000/svg" width="884" height="884" viewBox="139.5 90 884 884">

<path d="M0 0 C15.71216848 0.26325073 30.46138831 6.07490543 41.8137207 16.97314453 C53.61871389 29.2913983 60.70826356 44.01480145 60.37231445 61.19189453 C60.35885986 62.16078613 60.34540527 63.12967773 60.33154297 64.12792969 C60.04775461 77.70190316 56.98056782 88.20555504 51.05981445 100.31689453 C50.47731934 101.51862305 50.47731934 101.51862305 49.88305664 102.74462891 C43.04401702 116.70339485 35.02005613 129.62706113 26.05981445 142.31689453 C25.53742187 143.05842773 25.0150293 143.79996094 24.47680664 144.56396484 C17.7690735 153.99792779 10.41037188 162.53118117 2.40795898 170.88330078 C0.75988749 172.63583172 -0.78074875 174.46458208 -2.31518555 176.31689453 C-11.85295478 187.31476671 -23.34145233 196.59951741 -34.94018555 205.31689453 C-35.54330566 205.77692871 -36.14642578 206.23696289 -36.76782227 206.7109375 C-45.2113814 213.14634681 -53.84987093 218.95543375 -63.06176758 224.23291016 C-64.90765999 225.29812491 -66.73491394 226.39048558 -68.5612793 227.48876953 C-95.7826005 243.62830452 -126.98763127 254.09883531 -157.94018555 260.31689453 C-158.67350098 260.46707031 -159.40681641 260.61724609 -160.16235352 260.77197266 C-179.61351912 264.65784941 -199.34279277 265.49731041 -219.12768555 265.50439453 C-220.22969803 265.50589005 -220.22969803 265.50589005 -221.35397339 265.50741577 C-268.94206292 265.50008684 -315.3602843 253.2463844 -357.94018555 232.31689453 C-358.77598145 231.90858398 -359.61177734 231.50027344 -360.47290039 231.07958984 C-393.1814089 214.94013182 -422.4843774 192.35124378 -447.94018555 166.31689453 C-451.75489876 167.89253243 -454.15304209 170.29439347 -457.04077148 173.20629883 C-457.53569092 173.7025325 -458.03061035 174.19876617 -458.54052734 174.71003723 C-460.17318696 176.34917842 -461.79874917 177.9951818 -463.42456055 179.64111328 C-464.5650188 180.78784829 -465.70599798 181.93406544 -466.84747314 183.07978821 C-469.85383628 186.09945128 -472.85459229 189.12462003 -475.85375977 192.15142822 C-480.63810453 196.97886516 -485.42903623 201.79973884 -490.22345734 206.61716652 C-491.88749583 208.2913232 -493.54801447 209.96891103 -495.20819092 211.64689636 C-500.10036847 216.57756881 -505.02962947 221.39574286 -510.31564331 225.90953064 C-512.40025555 227.71545967 -514.30890525 229.65228658 -516.2019043 231.65673828 C-532.30556423 248.43138404 -532.30556423 248.43138404 -542.94018555 253.31689453 C-543.57794922 253.61015625 -544.21571289 253.90341797 -544.87280273 254.20556641 C-559.93340078 260.84679741 -578.43130364 262.53567967 -594.0378418 256.62939453 C-594.99561523 256.19626953 -595.95338867 255.76314453 -596.94018555 255.31689453 C-598.01139648 254.84251953 -599.08260742 254.36814453 -600.1862793 253.87939453 C-616.76796878 245.75456199 -627.73677551 232.60918404 -633.94018555 215.31689453 C-634.26116211 214.49060547 -634.58213867 213.66431641 -634.9128418 212.81298828 C-640.45945528 196.32793706 -636.90893841 178.68563556 -629.94018555 163.31689453 C-624.31860141 152.64541278 -616.17933571 144.23628163 -607.32470703 136.16625977 C-597.85889171 127.42592383 -588.79819856 118.28671074 -579.71103978 109.15621114 C-577.28402196 106.71902553 -574.85359713 104.28524234 -572.42344666 101.85118103 C-566.28016908 95.69693207 -560.14120579 89.53838811 -554.00268555 83.37939453 C-547.34621429 76.70078611 -540.68893385 70.02299438 -534.02677149 63.35006231 C-531.61961295 60.93876912 -529.21352837 58.52642477 -526.80998421 56.1115284 C-524.13566951 53.42520098 -521.45828628 50.74196618 -518.78027344 48.05932617 C-518.00038559 47.274272 -517.22049774 46.48921783 -516.41697693 45.68037415 C-512.30539295 41.56839752 -508.11382343 37.62720756 -503.68457699 33.85817623 C-501.96302678 32.33707623 -500.3870874 30.74082467 -498.81518555 29.06689453 C-486.38245096 16.5493913 -471.31811361 6.1763598 -453.11157227 5.98754883 C-452.16813965 5.99310791 -451.22470703 5.99866699 -450.25268555 6.00439453 C-449.27315918 6.00930908 -448.29363281 6.01422363 -447.28442383 6.01928711 C-440.13219762 6.13502853 -433.69585749 6.83948317 -426.94018555 9.31689453 C-425.45711914 9.84476563 -425.45711914 9.84476563 -423.9440918 10.38330078 C-404.21001441 18.00040326 -392.08248509 31.74151708 -379.94018555 48.31689453 C-366.83059169 66.1084862 -353.43437301 82.59877485 -335.94018555 96.31689453 C-335.0378418 97.03619141 -334.13549805 97.75548828 -333.20581055 98.49658203 C-307.96803079 118.08723428 -279.06262773 130.72646538 -247.94018555 137.31689453 C-247.17109863 137.48495605 -246.40201172 137.65301758 -245.60961914 137.82617188 C-201.67155149 147.15105318 -154.69679191 137.27206798 -117.0847168 113.43408203 C-87.1365595 93.27022954 -67.18596561 66.27063526 -52.94018555 33.31689453 C-52.26511963 33.54755615 -51.59005371 33.77821777 -50.89453125 34.01586914 C-43.56907753 36.40667921 -36.4084693 36.67961276 -28.75268555 36.75439453 C-27.2212793 36.78726563 -27.2212793 36.78726563 -25.65893555 36.82080078 C-19.58329724 36.80504037 -15.09896642 35.99302586 -9.68896484 33.17651367 C-7.94018555 32.31689453 -7.94018555 32.31689453 -5.94018555 32.31689453 C-3.51992312 23.38969705 -5.4879135 16.89841958 -8.7487793 8.45361328 C-10.52547522 3.77595157 -10.52547522 3.77595157 -10.94018555 1.31689453 C-8.69180206 -0.93148895 -3.11440739 0.00591156 0 0 Z " fill="#335A76" transform="translate(864.940185546875,555.68310546875)"/>
<path d="M0 0 C3.57374027 0.01072317 7.14697801 0.00004699 10.72070312 -0.01269531 C23.16357154 -0.02111622 35.27878088 0.36104002 47.58007812 2.26074219 C48.79373047 2.43766602 50.00738281 2.61458984 51.2578125 2.796875 C67.05574901 5.1833352 82.38860902 8.31055971 97.58007812 13.26074219 C98.58071289 13.58026855 99.58134766 13.89979492 100.61230469 14.22900391 C116.82707912 19.44638394 132.30096887 25.73771854 147.58007812 33.26074219 C148.43182617 33.6796875 149.28357422 34.09863281 150.16113281 34.53027344 C175.8566863 47.31211213 199.06982051 63.83174348 220.25585938 83.15527344 C222.29281737 85.00051774 224.3627866 86.79155889 226.45507812 88.57324219 C229.9841022 91.65129564 233.32419676 94.89687024 236.64257812 98.19824219 C237.1251709 98.67624268 237.60776367 99.15424316 238.10498047 99.64672852 C242.12571237 103.68441122 245.86986937 107.93792356 249.58007812 112.26074219 C250.12172607 112.89036865 250.66337402 113.51999512 251.22143555 114.16870117 C277.68536775 145.16816271 297.34856057 180.13764154 311.58007812 218.26074219 C311.91475098 219.1339209 312.24942383 220.00709961 312.59423828 220.90673828 C317.94215267 235.0339839 320.8101822 249.66901089 315.14257812 264.19824219 C311.89033843 271.30868134 307.65061221 277.33612878 302.58007812 283.26074219 C301.76796875 284.24107422 301.76796875 284.24107422 300.93945312 285.24121094 C290.28643152 296.9971969 273.63718633 304.58585561 257.95117188 305.46386719 C239.66623718 305.68176115 224.15367536 301.07513822 210.58007812 288.26074219 C201.26328243 278.54858432 195.64123847 266.37728793 190.86206055 253.95727539 C171.97663152 205.39744602 133.04136703 164.49259344 85.58007812 143.26074219 C67.2290776 135.32418225 49.3605617 130.21275158 29.58007812 127.26074219 C28.86722656 127.1525415 28.154375 127.04434082 27.41992188 126.93286133 C20.01149029 125.95535994 12.53917987 126.05969953 5.08007812 126.07324219 C4.36465851 126.07451111 3.64923889 126.07578003 2.91213989 126.0770874 C-45.19752625 126.2399634 -87.07748568 145.05970044 -121.01757812 178.84667969 C-150.76108577 210.2399857 -164.59231017 252.13202201 -164.73242188 294.76074219 C-164.7373465 295.98363449 -164.7373465 295.98363449 -164.74237061 297.23123169 C-164.76208031 312.40677723 -164.29364452 328.20923934 -159.22460938 342.67089844 C-158.37710315 345.39855198 -158.40848598 346.63100886 -159.41992188 349.26074219 C-160.40089844 348.86242187 -161.381875 348.46410156 -162.39257812 348.05371094 C-185.41621951 338.9133685 -210.88973009 336.18734966 -234.29882812 345.85449219 C-247.80794313 351.94120233 -258.89624267 360.58881182 -269.63867188 370.66308594 C-273.15794186 373.95004456 -276.77247683 377.11750278 -280.41992188 380.26074219 C-282.37105995 377.33403508 -282.92500534 375.68661182 -283.63867188 372.32324219 C-283.95384766 370.85564453 -283.95384766 370.85564453 -284.27539062 369.35839844 C-284.59443359 367.82505859 -284.59443359 367.82505859 -284.91992188 366.26074219 C-285.13261719 365.26945312 -285.3453125 364.27816406 -285.56445312 363.25683594 C-286.20100423 360.26153102 -286.81589973 357.26276693 -287.41992188 354.26074219 C-287.59958496 353.37410889 -287.77924805 352.48747559 -287.96435547 351.57397461 C-295.65068104 311.72644466 -293.74210873 270.78597442 -285.41992188 231.26074219 C-285.26515381 230.48980225 -285.11038574 229.7188623 -284.95092773 228.92456055 C-275.97764943 184.40175341 -254.29586518 142.09721938 -225.41992188 107.26074219 C-224.98067383 106.71998047 -224.54142578 106.17921875 -224.08886719 105.62207031 C-212.08416606 90.86176437 -198.59280462 76.77624962 -183.41992188 65.26074219 C-182.16083472 64.26365174 -180.90313496 63.26480799 -179.64648438 62.26464844 C-141.86897216 32.458089 -97.67180301 13.23064871 -50.54492188 4.01074219 C-49.77438477 3.85951904 -49.00384766 3.7082959 -48.20996094 3.55249023 C-45.61889772 3.07469213 -43.02450019 2.65867607 -40.41992188 2.26074219 C-39.27620117 2.08124023 -38.13248047 1.90173828 -36.95410156 1.71679688 C-24.66789944 -0.04967633 -12.39209184 -0.04418464 0 0 Z " fill="#5F91B7" transform="translate(616.419921875,198.7392578125)"/>
<path d="M0 0 C1.31605225 0.42104004 1.31605225 0.42104004 2.65869141 0.85058594 C40.98712381 13.21459639 78.00200027 34.37803352 97.3828125 71.16967773 C100.64534724 77.60487647 103.36067798 83.95202108 105 91 C105.17700439 91.76094971 105.35400879 92.52189941 105.53637695 93.3059082 C107.22137312 101.47817957 107.35046708 109.56792116 107.3125 117.875 C107.31233887 118.5950119 107.31217773 119.3150238 107.31201172 120.05685425 C107.2930934 132.23771713 106.29016478 144.0175307 104 156 C103.01 156 102.02 156 101 156 C99.56469727 154.47802734 99.56469727 154.47802734 98.06640625 152.3359375 C97.50606689 151.55033447 96.94572754 150.76473145 96.3684082 149.95532227 C95.7724585 149.10381592 95.17650879 148.25230957 94.5625 147.375 C88.44051587 138.8483761 82.0070038 130.80903919 75 123 C74.5349707 122.47857422 74.06994141 121.95714844 73.59082031 121.41992188 C64.62821386 111.39735707 55.34906082 101.60730712 45 93 C44.46310547 92.54931152 43.92621094 92.09862305 43.37304688 91.63427734 C-0.61360843 54.81015495 -51.01657437 31.20048424 -107 19 C-107.82725586 18.81872559 -108.65451172 18.63745117 -109.50683594 18.45068359 C-140.15974271 12.01001886 -173.00837791 12.24049193 -204 16 C-204.92941406 16.10715332 -205.85882812 16.21430664 -206.81640625 16.32470703 C-230.40773189 19.08104049 -252.53242896 25.39639147 -275 33 C-271.22480633 28.55859568 -266.32135114 26.06753468 -261.3125 23.25 C-260.37422363 22.71995361 -259.43594727 22.18990723 -258.46923828 21.64379883 C-222.02137937 1.28133127 -181.39443593 -9.03480544 -140 -13 C-139.05092773 -13.09571289 -138.10185547 -13.19142578 -137.12402344 -13.29003906 C-92.08792968 -17.34459542 -43.16099939 -14.12678603 0 0 Z " fill="#6FA8CB" transform="translate(794,174)"/>
<path d="M0 0 C28.88316644 -0.97966296 56.54585012 12.34214913 77.34033203 31.71142578 C88.04977064 41.91200704 97.69042347 54.22179618 102.90234375 68.19921875 C102.90234375 68.85921875 102.90234375 69.51921875 102.90234375 70.19921875 C97.12175692 69.14315 91.45758967 67.83025472 85.77734375 66.32421875 C42.33895626 55.22800372 -7.9197619 53.95965297 -52.09765625 61.19921875 C-52.99871094 61.33312012 -53.89976562 61.46702148 -54.828125 61.60498047 C-93.07434191 67.29638179 -133.84820386 79.80080452 -165.09765625 103.19921875 C-166.598125 104.32263672 -166.598125 104.32263672 -168.12890625 105.46875 C-174.49105094 110.45883876 -179.88256753 116.03124962 -185.09765625 122.19921875 C-185.42765625 121.53921875 -185.75765625 120.87921875 -186.09765625 120.19921875 C-185.1246269 117.89483814 -184.09525923 115.76861731 -182.91015625 113.57421875 C-182.55284424 112.91123779 -182.19553223 112.24825684 -181.82739258 111.56518555 C-174.71954822 98.80878262 -165.23849143 87.63641022 -155.09765625 77.19921875 C-154.58058105 76.66167969 -154.06350586 76.12414062 -153.53076172 75.5703125 C-146.45207918 68.23418463 -139.18514036 61.43177531 -131.09765625 55.19921875 C-130.52740723 54.75255859 -129.9571582 54.30589844 -129.36962891 53.84570312 C-91.98860424 24.62107765 -47.81960509 3.07540966 0 0 Z " fill="#9EC7EC" transform="translate(689.09765625,90.80078125)"/>
<path d="M0 0 C10.17034983 7.48563015 18.03482938 18.83847968 20.328125 31.3515625 C21.59100811 47.17860405 18.30790179 60.83794483 8.328125 73.3515625 C2.75838263 79.28478134 -3.20836629 83.1939242 -10.671875 86.3515625 C-11.331875 86.67125 -11.991875 86.9909375 -12.671875 87.3203125 C-22.88106287 91.62731363 -36.83721248 90.67181201 -46.9375 86.66796875 C-59.91257626 80.42139632 -69.11666153 71.74943028 -74.671875 58.3515625 C-74.99027344 57.69285156 -75.30867188 57.03414062 -75.63671875 56.35546875 C-79.77011901 46.58388196 -78.90467447 33.86043731 -75.734375 23.9765625 C-69.91490277 9.89246165 -60.15174686 0.37381298 -46.234375 -5.5859375 C-30.63617753 -11.71305901 -14.09169046 -8.69399616 0 0 Z " fill="#FAFAFB" transform="translate(445.671875,597.6484375)"/>
<path d="M0 0 C9.9 0 19.8 0 30 0 C30 12.21 30 24.42 30 37 C37.59 37 45.18 37 53 37 C53 25.12 53 13.24 53 1 C62.9 1 72.8 1 83 1 C83 33.01 83 65.02 83 98 C73.1 98 63.2 98 53 98 C53 85.46 53 72.92 53 60 C45.41 60 37.82 60 30 60 C30 72.54 30 85.08 30 98 C20.1 98 10.2 98 0 98 C0 65.66 0 33.32 0 0 Z " fill="#345B77" transform="translate(229,873)"/>
<path d="M0 0 C6.01789242 4.24012971 10.51279821 9.51433303 14 16 C14 16.66 14 17.32 14 18 C11.33681412 18.98961566 8.67006693 19.96676851 6 20.9375 C4.88431641 21.35418945 4.88431641 21.35418945 3.74609375 21.77929688 C-1.19459721 23.56224187 -5.72886529 24.80583036 -11 25 C-13.6875 22.1875 -13.6875 22.1875 -16 19 C-19.59741755 17.14307067 -22.60462038 16.72784915 -26.625 16.75 C-27.56601562 16.74484375 -28.50703125 16.7396875 -29.4765625 16.734375 C-32.24575221 16.82832693 -32.24575221 16.82832693 -35 19 C-35.58350505 21.45709375 -35.58350505 21.45709375 -35 24 C-32.02079649 26.79973865 -29.30345574 27.6062565 -25.34375 28.39453125 C-24.24385742 28.62454834 -23.14396484 28.85456543 -22.01074219 29.09155273 C-20.85219727 29.32946533 -19.69365234 29.56737793 -18.5 29.8125 C5.10521431 34.98644488 5.10521431 34.98644488 11.8203125 44.10546875 C12.20960938 44.73066406 12.59890625 45.35585938 13 46 C13.40992188 46.65613281 13.81984375 47.31226563 14.2421875 47.98828125 C17.63957484 54.39645668 18.07152871 60.88970096 17 68 C13.96010311 77.45235864 8.32920355 84.40484016 -0.296875 89.3046875 C-9.18284294 93.50254132 -17.59750992 94.36335831 -27.3125 94.375 C-28.90868164 94.41173828 -28.90868164 94.41173828 -30.53710938 94.44921875 C-41.59404652 94.48969564 -51.51205196 91.23877833 -60 84 C-65.40361384 78.23894867 -70 72.12840093 -70 64 C-66.45995797 63.3245086 -62.91773831 62.66119202 -59.375 62 C-58.37597656 61.80921875 -57.37695312 61.6184375 -56.34765625 61.421875 C-51.50947407 60.52472864 -46.94607582 59.72990712 -42 60 C-41.62875 60.9075 -41.2575 61.815 -40.875 62.75 C-38.63995136 66.6240843 -36.93269747 67.89804101 -33 70 C-30.22361027 70.4734767 -27.55746251 70.42819214 -24.75 70.3125 C-24.03070312 70.30283203 -23.31140625 70.29316406 -22.5703125 70.28320312 C-18.65499416 70.24233182 -18.65499416 70.24233182 -15 69 C-15 66.69 -15 64.38 -15 62 C-19.33918726 59.60550947 -23.12286127 58.43435276 -28 57.625 C-40.76361724 55.28399833 -54.5093846 51.64319322 -62.5625 40.75 C-65.22799211 35.86450193 -65.56197853 31.3294249 -65.625 25.875 C-65.6415564 24.74723145 -65.6415564 24.74723145 -65.65844727 23.59667969 C-65.46445139 15.99337355 -62.30151134 9.44479543 -57 4 C-41.62517218 -8.80121534 -17.23978321 -9.97600475 0 0 Z " fill="#355B77" transform="translate(572,878)"/>
<path d="M0 0 C9.24 0 18.48 0 28 0 C28.495 15.345 28.495 15.345 29 31 C31.64 28.69 34.28 26.38 37 24 C44.44995382 21.51668206 52.67003061 22.36878612 59.74609375 25.6171875 C67.72177951 30.51041585 71.30374249 38.46542411 73.58203125 47.2421875 C75.61213687 60.63709001 75.13545018 76.25611668 67.0625 87.625 C62.15979792 93.35908298 56.79256258 97.42283169 49.10351562 98.18896484 C40.66352578 98.72764622 33.11947911 99.06578321 26 94 C24.29671681 92.3707726 22.61838719 90.71358643 21 89 C20.34 89 19.68 89 19 89 C18.01 91.64 17.02 94.28 16 97 C10.72 97 5.44 97 0 97 C0 64.99 0 32.98 0 0 Z " fill="#345B76" transform="translate(859,874)"/>
<path d="M0 0 C8.92036449 6.2543157 15.05536555 15.05349345 17.703125 25.64453125 C17.703125 28.28453125 17.703125 30.92453125 17.703125 33.64453125 C8.463125 34.30453125 -0.776875 34.96453125 -10.296875 35.64453125 C-10.956875 31.68453125 -11.616875 27.72453125 -12.296875 23.64453125 C-14.54483017 20.77838841 -16.08894187 19.24849781 -19.296875 17.64453125 C-23.06836707 17.28873011 -25.55419345 17.28182631 -28.984375 18.95703125 C-35.49274796 26.52081605 -35.93090935 36.15149869 -35.796875 45.70703125 C-35.81234375 46.81369141 -35.8278125 47.92035156 -35.84375 49.06054688 C-35.80980756 56.24361659 -34.8339362 62.30938919 -31.296875 68.64453125 C-28.36681231 71.33702129 -26.81427195 71.59749516 -22.859375 71.95703125 C-17.8462997 71.57370455 -17.8462997 71.57370455 -13.296875 69.64453125 C-11.84024654 66.74827778 -11.04282392 63.78932311 -10.296875 60.64453125 C-10.10738281 59.88914062 -9.91789062 59.13375 -9.72265625 58.35546875 C-9.58214844 57.79085937 -9.44164062 57.22625 -9.296875 56.64453125 C-0.2370691 56.52228499 8.68058614 56.80522531 17.703125 57.64453125 C18.66911739 66.1452643 14.69203176 74.12296583 9.953125 81.01953125 C4.06238646 88.30345217 -5.08963907 93.215608 -14.296875 94.64453125 C-29.12499017 95.77324891 -41.47999433 94.65139522 -53.26953125 84.6953125 C-63.1108143 74.74025739 -67.74366553 60.70180757 -67.734375 46.89453125 C-67.36240564 31.49256649 -64.2458658 17.09430749 -53.296875 5.64453125 C-39.05728414 -7.37202726 -16.7091843 -9.8606921 0 0 Z " fill="#355B77" transform="translate(406.296875,877.35546875)"/>
<path d="M0 0 C0.99 0.495 0.99 0.495 2 1 C1.52167725 1.47308594 1.04335449 1.94617188 0.55053711 2.43359375 C-1.6565534 4.61964406 -3.85953633 6.80979129 -6.0625 9 C-6.81466797 9.74378906 -7.56683594 10.48757813 -8.34179688 11.25390625 C-12.54012601 15.4340608 -16.54854554 19.70059584 -20.41186523 24.19140625 C-22.66291022 26.75493296 -25.05881819 29.11625776 -27.5 31.5 C-30.61803626 34.5714984 -33.65894084 37.66721906 -36.5 41 C-39.7830078 44.85122069 -43.35404512 48.3828886 -46.953125 51.93359375 C-49.58023558 54.53905232 -52.09993084 57.18453425 -54.5 60 C-57.7823339 63.85043015 -61.35254849 67.38145579 -64.95092773 70.93139648 C-68.20000607 74.15366448 -71.22443863 77.49340645 -74.19140625 80.97265625 C-77.16572051 84.30671478 -80.38314409 87.39439374 -83.5703125 90.5234375 C-86.39213074 93.39969596 -88.93989343 96.43614591 -91.4296875 99.6015625 C-93 101 -93 101 -97 101 C-98.97265625 99.42578125 -98.97265625 99.42578125 -101.0625 97.3125 C-111.25752891 87.82289319 -123.90965081 85.29411199 -137.41015625 85.625 C-149.45191649 86.32263974 -159.09573194 92.61606528 -167.1875 101.1875 C-175.4467448 111.42528255 -179.39403025 123.95463047 -178 137 C-175.30279663 149.2176023 -169.8564498 161.90155206 -159 169 C-160.27103072 171.76335363 -161.60303497 173.87139105 -163.6953125 176.07421875 C-164.50911377 176.93829346 -164.50911377 176.93829346 -165.33935547 177.81982422 C-165.92861816 178.43615723 -166.51788086 179.05249023 -167.125 179.6875 C-167.74391113 180.34250488 -168.36282227 180.99750977 -169.00048828 181.67236328 C-170.32204869 183.07059336 -171.64551031 184.46702852 -172.97070312 185.86181641 C-175.62113303 188.65446139 -178.25721898 191.46042904 -180.89331055 194.26660156 C-182.88621803 196.38693531 -184.88236896 198.50417808 -186.87890625 200.62109375 C-189.74995681 203.6674019 -192.61029202 206.72338429 -195.46484375 209.78515625 C-196.19268066 210.56391113 -196.92051758 211.34266602 -197.67041016 212.14501953 C-199.0696154 213.64245938 -200.46652996 215.14204384 -201.86083984 216.64404297 C-202.49070801 217.31709473 -203.12057617 217.99014648 -203.76953125 218.68359375 C-204.59868042 219.57389282 -204.59868042 219.57389282 -205.44458008 220.48217773 C-207 222 -207 222 -210 224 C-208.35295448 219.60646225 -206.26518966 215.47403742 -204.11328125 211.3125 C-203.73318405 210.57354492 -203.35308685 209.83458984 -202.96147156 209.07324219 C-202.15646039 207.50937453 -201.35034981 205.94607237 -200.54321289 204.38330078 C-199.33151677 202.03682637 -198.12346748 199.68850446 -196.91601562 197.33984375 C-196.12767054 195.80986163 -195.33925968 194.2799134 -194.55078125 192.75 C-194.16632843 192.00121582 -193.78187561 191.25243164 -193.38577271 190.48095703 C-191.59059763 187.00132421 -189.765949 183.55129633 -187.82177734 180.15234375 C-187.17289551 179.00894531 -186.52401367 177.86554688 -185.85546875 176.6875 C-185.27821045 175.70136719 -184.70095215 174.71523438 -184.10620117 173.69921875 C-182.82674339 170.5772401 -182.95849586 169.16358169 -184 166 C-184.99262806 164.22418376 -184.99262806 164.22418376 -186.25 162.5625 C-191.32909493 154.78144468 -194.55798934 145.28222389 -195 136 C-195.061875 135.07316406 -195.12375 134.14632812 -195.1875 133.19140625 C-195.87417888 115.659636 -189.69075707 100.03231936 -178 87 C-168.6379201 77.49818756 -158.83845949 72.39227588 -146 69 C-145.36723145 68.8249292 -144.73446289 68.6498584 -144.08251953 68.46948242 C-130.39368318 65.38347629 -114.18877969 67.89633825 -102.30078125 75.234375 C-99.32481014 77.22927 -99.32481014 77.22927 -97.00610352 76.77001953 C-94.81419668 75.92868155 -93.39861278 74.95086541 -91.6015625 73.4453125 C-90.96468506 72.9186499 -90.32780762 72.3919873 -89.67163086 71.84936523 C-88.99624268 71.28032471 -88.32085449 70.71128418 -87.625 70.125 C-86.18179425 68.9300171 -84.73776951 67.7360227 -83.29296875 66.54296875 C-82.57028809 65.94403809 -81.84760742 65.34510742 -81.10302734 64.72802734 C-78.08572919 62.24875682 -75.01738113 59.83826867 -71.9375 57.4375 C-67.0993327 53.6564344 -62.28942292 49.84263353 -57.5 46 C-52.71056443 42.15735633 -47.89994408 38.34450173 -43.0625 34.5625 C-37.31121403 30.06319465 -31.63993674 25.47108019 -25.9831543 20.85375977 C-20.93254616 16.73842667 -15.83236017 12.69128617 -10.69140625 8.68945312 C-7.06535856 5.86184173 -3.51884102 2.95878524 0 0 Z " fill="#365D78" transform="translate(728,381)"/>
<path d="M0 0 C4.86577591 4.45166732 7.09892079 8.30368518 7.4675293 14.83740234 C7.50182079 16.8158384 7.51546706 18.79470784 7.51171875 20.7734375 C7.52588333 21.82979401 7.54004791 22.88615051 7.55464172 23.97451782 C7.59639891 27.33728258 7.61174281 30.69951314 7.625 34.0625 C7.65419377 37.41809483 7.68891561 40.77355924 7.72749329 44.12905884 C7.74971815 46.21149797 7.76569492 48.2940166 7.77433777 50.3765564 C7.78488945 51.81317123 7.78488945 51.81317123 7.7956543 53.27880859 C7.79913376 54.10818939 7.80261322 54.93757019 7.80619812 55.79208374 C7.98663589 59.77102486 8.49764789 63.72883099 8.9375 67.6875 C0.0275 67.6875 -8.8825 67.6875 -18.0625 67.6875 C-18.5575 63.2325 -18.5575 63.2325 -19.0625 58.6875 C-19.805 59.450625 -20.5475 60.21375 -21.3125 61 C-28.66813659 68.18846303 -35.43180075 69.13630831 -45.36816406 69.12133789 C-51.43460736 68.97197001 -55.67792236 68.13867882 -60.0625 63.6875 C-60.64386719 63.09839844 -61.22523438 62.50929688 -61.82421875 61.90234375 C-66.99381152 56.226637 -67.48298855 51.59396939 -67.3984375 43.984375 C-66.72821626 37.40685491 -63.39897813 33.55164751 -58.4375 29.4375 C-47.22103289 21.70779982 -33.34062628 20.21701521 -20.0625 20.6875 C-20.5575 16.7275 -20.5575 16.7275 -21.0625 12.6875 C-25.66806307 11.15231231 -30.78664672 11.02870037 -35.4375 12.375 C-37.62395705 14.14098454 -38.09782187 16.09125755 -39.0625 18.6875 C-41.89605099 18.54521699 -44.72928787 18.39876584 -47.5625 18.25 C-48.35398437 18.21068359 -49.14546875 18.17136719 -49.9609375 18.13085938 C-55.03635441 17.86044782 -60.02625445 17.3747858 -65.0625 16.6875 C-64.42668022 10.01139228 -61.59431622 5.89659418 -56.6875 1.5 C-42.08016664 -10.37815005 -15.62319938 -9.87072429 0 0 Z " fill="#345B77" transform="translate(822.0625,903.3125)"/>
<path d="M0 0 C9.9 0 19.8 0 30 0 C30 24.09 30 48.18 30 73 C42.54 73 55.08 73 68 73 C68 80.92 68 88.84 68 97 C45.56 97 23.12 97 0 97 C0 64.99 0 32.98 0 0 Z " fill="#335A76" transform="translate(666,874)"/>
<path d="M0 0 C9.11011318 4.98758422 15.60344199 12.46923718 18.6328125 22.44140625 C20.22490318 33.38848232 18.22595401 43.0787758 11.7265625 52.08203125 C5.88858417 58.66064863 -2.10269175 62.84508465 -10.78125 63.828125 C-22.12034034 64.34773708 -30.33660705 61.36816456 -38.8046875 53.81640625 C-46.01662762 45.851654 -48.30452192 36.71469507 -47.9140625 26.12890625 C-46.68429041 17.83672875 -42.55130129 10.5520146 -36.3671875 4.90625 C-25.46575627 -3.0781967 -12.64939418 -5.29209348 0 0 Z " fill="#345B76" transform="translate(431.3671875,607.55859375)"/>
<path d="M0 0 C9.9 0 19.8 0 30 0 C30 32.01 30 64.02 30 97 C20.1 97 10.2 97 0 97 C0 64.99 0 32.98 0 0 Z " fill="#335A76" transform="translate(450,874)"/>
<path d="M0 0 C5.82053259 3.25727738 8.79421054 7.72977276 12.0625 13.375 C13.85879681 20.91944658 13.01458691 26.95684386 9.2421875 33.734375 C5.60703737 39.03182996 1.0893297 42.7921076 -5.3125 44 C-13.04394979 44.92014352 -18.65912041 44.26890725 -25.1796875 39.85546875 C-29.92149761 35.73026765 -32.98291658 30.4417926 -33.5859375 24.14453125 C-33.81371735 16.67159991 -33.43615386 11.63730337 -28.3125 6 C-20.30931755 -2.14902633 -10.79619072 -4.84360823 0 0 Z " fill="#355B77" transform="translate(741.3125,480)"/>
<path d="M0 0 C3.9754732 2.88795774 7.36429642 6.15198064 10.5703125 9.8671875 C9.2578125 12.3671875 9.2578125 12.3671875 7.5703125 14.8671875 C6.5803125 14.8671875 5.5903125 14.8671875 4.5703125 14.8671875 C2.90364583 13.20052083 1.23697917 11.53385417 -0.4296875 9.8671875 C-7.66254824 4.60692515 -14.41909627 1.92578245 -23.4296875 2.8671875 C-30.81711468 4.38550155 -38.19223685 7.92080605 -43.03515625 13.82421875 C-47.84040758 21.19414968 -49.34826826 28.12322884 -48.4296875 36.8671875 C-46.63634878 44.77076414 -43.15636948 50.23351428 -37.4296875 55.8671875 C-36.86378906 56.434375 -36.29789063 57.0015625 -35.71484375 57.5859375 C-35.29074219 58.00875 -34.86664062 58.4315625 -34.4296875 58.8671875 C-35.4196875 60.1871875 -36.4096875 61.5071875 -37.4296875 62.8671875 C-42.91066627 61.82376266 -46.50966777 58.31740035 -49.88671875 54.0078125 C-56.03949292 44.7135917 -57.89438604 35.2159692 -55.9609375 24.1953125 C-52.95756027 12.68236647 -45.3012066 3.96367004 -35.1796875 -2.0703125 C-24.19060658 -6.31609376 -10.14710522 -5.90736766 0 0 Z " fill="#3A607B" transform="translate(615.4296875,480.1328125)"/>
<path d="M0 0 C3.65907504 0.68607657 5.35167676 1.98984314 8 4.5625 C10.21215421 8.98680843 9.27474209 14.95431511 9.3125 19.8125 C9.34150391 21.04097656 9.37050781 22.26945313 9.40039062 23.53515625 C9.47188554 33.68743413 9.47188554 33.68743413 7.26171875 37.37890625 C5 39.5625 5 39.5625 2.78125 40.32421875 C2.0284375 40.29972656 1.275625 40.27523437 0.5 40.25 C-0.62921875 40.25580078 -0.62921875 40.25580078 -1.78125 40.26171875 C-5.08411277 39.22085179 -6.11330983 37.41961287 -8 34.5625 C-8.81312986 29.76038202 -8.60291081 24.92605939 -8.5625 20.0625 C-8.58634766 18.74378906 -8.61019531 17.42507813 -8.63476562 16.06640625 C-8.63283203 14.79667969 -8.63089844 13.52695312 -8.62890625 12.21875 C-8.62963135 11.06181641 -8.63035645 9.90488281 -8.63110352 8.71289062 C-7.64133787 3.77210307 -4.96892073 0.93167264 0 0 Z " fill="#FCFCFD" transform="translate(895,914.4375)"/>
<path d="M0 0 C0.58079748 10.88457503 0.58079748 10.88457503 -3 16 C-6.51143901 18.86117252 -10.69627596 18.3415654 -15 18 C-17 16.9375 -17 16.9375 -18 15 C-18.63243749 10.73104694 -18.56379811 8.77522241 -16 5.25 C-10.93292415 1.44969311 -6.34394688 -0.20926214 0 0 Z " fill="#F9FAFB" transform="translate(802,937)"/>
<path d="M0 0 C0.66 0.33 1.32 0.66 2 1 C2 1.66 2 2.32 2 3 C-2.455 4.485 -2.455 4.485 -7 6 C-4.74259377 3.66475218 -2.7194239 1.81294927 0 0 Z " fill="#8AB9D5" transform="translate(526,201)"/>
</svg>
