<?xml version="1.0" encoding="UTF-8"?>
<svg version="1.1" xmlns="http://www.w3.org/2000/svg" width="711" height="711" viewBox="236 236 711 711">
<path d="M0 0 C5.94 0 11.88 0 18 0 C18.495 2.866875 18.99 5.73375 19.5 8.6875 C19.65662109 9.58170654 19.81324219 10.47591309 19.97460938 11.3972168 C20.63725061 15.3051347 21.19459839 19.01884127 21 23 C22.19238281 22.98839844 23.38476562 22.97679687 24.61328125 22.96484375 C26.17968594 22.95546408 27.74609231 22.94636407 29.3125 22.9375 C30.09818359 22.92912109 30.88386719 22.92074219 31.69335938 22.91210938 C32.45068359 22.90888672 33.20800781 22.90566406 33.98828125 22.90234375 C34.68477783 22.89710693 35.38127441 22.89187012 36.09887695 22.88647461 C38 23 38 23 41 24 C41.12246094 22.99839844 41.24492188 21.99679687 41.37109375 20.96484375 C41.92969679 17.05462246 42.94359758 13.35233077 44.0625 9.5625 C44.42472656 8.32628906 44.78695313 7.09007812 45.16015625 5.81640625 C45.43730469 4.88699219 45.71445312 3.95757812 46 3 C52.18217122 1.3351215 57.78447536 2.93268769 64 4 C64 11.59 64 19.18 64 27 C67.3 27.33 70.6 27.66 74 28 C76.97 28.66 79.94 29.32 83 30 C85.97 23.4 88.94 16.8 92 10 C97.88532748 11.1770655 103.32756373 12.27360635 109 14 C108.85823579 16.70860124 108.71171784 19.41680752 108.5625 22.125 C108.50352539 23.26582031 108.50352539 23.26582031 108.44335938 24.4296875 C108.20490998 28.68509203 107.79769763 32.80370826 107 37 C107.70125 37.18175781 108.4025 37.36351562 109.125 37.55078125 C114.89678529 39.07999067 120.44899107 40.80054363 126 43 C126.24492188 42.32582031 126.48984375 41.65164063 126.7421875 40.95703125 C128.27261836 37.35909286 130.15843308 34.06123937 132.125 30.6875 C132.49753906 30.04232422 132.87007812 29.39714844 133.25390625 28.73242188 C134.16632213 27.15324055 135.08275509 25.57638136 136 24 C140.05819183 24.65503282 143.53971282 25.94559121 147.3125 27.5625 C148.38113281 28.01753906 149.44976563 28.47257812 150.55078125 28.94140625 C151.76314453 29.46541016 151.76314453 29.46541016 153 30 C151.69951304 37.77232205 149.99548103 45.37726245 148 53 C148.8353125 53.25523437 148.8353125 53.25523437 149.6875 53.515625 C150.450625 53.75796875 151.21375 54.0003125 152 54.25 C152.7425 54.48203125 153.485 54.7140625 154.25 54.953125 C157.97161302 56.36987541 161.46519579 58.17339212 165 60 C165.37809814 59.5153125 165.75619629 59.030625 166.14575195 58.53125 C167.85856874 56.34657491 169.58525462 54.17328218 171.3125 52 C171.90740234 51.236875 172.50230469 50.47375 173.11523438 49.6875 C173.69208984 48.965625 174.26894531 48.24375 174.86328125 47.5 C175.39219971 46.8296875 175.92111816 46.159375 176.46606445 45.46875 C178 44 178 44 181 44 C183.08056178 45.02900413 185.1188414 46.14506072 187.125 47.3125 C188.20007813 47.92738281 189.27515625 48.54226563 190.3828125 49.17578125 C193 51 193 51 194 54 C193.45507812 55.85351562 193.45507812 55.85351562 192.53125 57.90625 C192.20769531 58.65003906 191.88414062 59.39382813 191.55078125 60.16015625 C190.85026042 61.72005208 190.14973958 63.27994792 189.44921875 64.83984375 C189.12566406 65.58363281 188.80210937 66.32742188 188.46875 67.09375 C188.16388672 67.77115234 187.85902344 68.44855469 187.54492188 69.14648438 C186.74951988 71.20017767 186.74951988 71.20017767 188 74 C190.4055261 75.87745453 190.4055261 75.87745453 193.3125 77.625 C194.27800781 78.23601562 195.24351562 78.84703125 196.23828125 79.4765625 C198.66567991 80.81558015 200.28476769 81.66014183 203 82 C205.19881076 80.12085331 207.06591713 78.31068256 209 76.1875 C210.03687388 75.07234728 211.07841813 73.9615155 212.125 72.85546875 C212.80949219 72.10753052 212.80949219 72.10753052 213.5078125 71.34448242 C215 70 215 70 219 68 C223.29 71.3 227.58 74.6 232 78 C229.75 84.75 229.75 84.75 228.0546875 87.6484375 C227.70019531 88.26074219 227.34570312 88.87304688 226.98046875 89.50390625 C226.61566406 90.12136719 226.25085938 90.73882812 225.875 91.375 C225.31619141 92.33599609 225.31619141 92.33599609 224.74609375 93.31640625 C223.83565998 94.88048477 222.91851809 96.44065534 222 98 C226.15207792 102.2626362 230.36321221 106.26795129 235 110 C239.12764916 108.18633597 242.62059205 105.50853382 246.25 102.875 C247.22453125 102.17310547 247.22453125 102.17310547 248.21875 101.45703125 C249.81435483 100.30725718 251.40743025 99.15397434 253 98 C256.58402695 99.53248049 259.02850134 101.6674601 261.8125 104.375 C262.62332031 105.14585937 263.43414063 105.91671875 264.26953125 106.7109375 C266 109 266 109 265.76464844 110.91357422 C264.93892698 113.16664433 263.934071 114.754572 262.49609375 116.671875 C261.75649414 117.66767578 261.75649414 117.66767578 261.00195312 118.68359375 C260.48568359 119.36550781 259.96941406 120.04742187 259.4375 120.75 C258.65729492 121.79607422 258.65729492 121.79607422 257.86132812 122.86328125 C256.57985819 124.57974556 255.29067202 126.29044431 254 128 C254.4026709 128.55606934 254.8053418 129.11213867 255.22021484 129.68505859 C256.18066406 131.01139323 257.14111328 132.33772786 258.1015625 133.6640625 C260.54203736 136.66695132 263.23299079 139.2949966 266 142 C266.52956299 141.6918335 267.05912598 141.38366699 267.60473633 141.06616211 C270.00137686 139.67935236 272.40668157 138.30832103 274.8125 136.9375 C275.64587891 136.45216797 276.47925781 135.96683594 277.33789062 135.46679688 C278.14033203 135.01240234 278.94277344 134.55800781 279.76953125 134.08984375 C280.50792236 133.66566162 281.24631348 133.24147949 282.00708008 132.80444336 C284 132 284 132 287 133 C288.65469197 134.99191762 290.18339146 136.96346495 291.6875 139.0625 C292.10322266 139.63033203 292.51894531 140.19816406 292.94726562 140.78320312 C293.97140082 142.18403173 294.98657535 143.59140348 296 145 C294.13176354 149.95023163 289.89461743 153.10332482 286.08007812 156.578125 C284.24353261 158.27578552 284.24353261 158.27578552 282 161 C282.47153303 165.06535243 284.78693531 167.92695316 287.0625 171.25 C287.79597656 172.32765625 288.52945313 173.4053125 289.28515625 174.515625 C290.13400391 175.74539063 290.13400391 175.74539063 291 177 C296.73029676 175.17294886 302.29724006 173.11688398 307.8359375 170.76953125 C310 170 310 170 313 170 C314.33858524 172.28874173 315.67101014 174.58069656 317 176.875 C317.57234375 177.85146484 317.57234375 177.85146484 318.15625 178.84765625 C321 183.7734375 321 183.7734375 321 186 C318.94898185 187.70127806 316.89455103 189.29988008 314.75 190.875 C310.90834928 193.72035449 307.28763523 196.50078428 304 200 C304.5053125 200.98742187 305.010625 201.97484375 305.53125 202.9921875 C306.18771013 204.28635176 306.84394867 205.58062845 307.5 206.875 C307.83386719 207.52597656 308.16773438 208.17695313 308.51171875 208.84765625 C311 213.7734375 311 213.7734375 311 216 C311.62567871 215.84853516 312.25135742 215.69707031 312.89599609 215.54101562 C315.7217708 214.8583345 318.5483688 214.17912568 321.375 213.5 C322.35984375 213.26152344 323.3446875 213.02304687 324.359375 212.77734375 C325.30039062 212.55175781 326.24140625 212.32617188 327.2109375 212.09375 C328.08024902 211.88427734 328.94956055 211.67480469 329.84521484 211.45898438 C332 211 332 211 334 211 C335.03516348 213.24435445 336.05314977 215.49406867 337.0625 217.75 C337.50432617 218.70132813 337.50432617 218.70132813 337.95507812 219.671875 C340.05649581 224.41860672 340.05649581 224.41860672 339.79858398 227.07275391 C338.77421227 229.54490013 337.78973198 230.06288678 335.4375 231.2890625 C334.72335937 231.67320312 334.00921875 232.05734375 333.2734375 232.453125 C332.52320313 232.83984375 331.77296875 233.2265625 331 233.625 C329.51829311 234.40404177 328.03899071 235.18767938 326.5625 235.9765625 C325.57443359 236.48823975 325.57443359 236.48823975 324.56640625 237.01025391 C322.82305133 237.92285673 322.82305133 237.92285673 322 240 C322.74442535 242.54564277 323.54514734 245.00700431 324.4375 247.5 C327 254.77287798 327 254.77287798 327 257 C328.07378906 256.855625 329.14757812 256.71125 330.25390625 256.5625 C331.69007356 256.37476571 333.12627324 256.18727891 334.5625 256 C335.61920898 255.85691406 335.61920898 255.85691406 336.69726562 255.7109375 C341.17367855 255.13333583 345.48661238 254.90510617 350 255 C350.67155349 257.26949102 351.3373963 259.5403961 352 261.8125 C352.37125 263.07707031 352.7425 264.34164063 353.125 265.64453125 C354 269 354 269 354 272 C351.04435292 273.33934716 348.0850622 274.67044247 345.125 276 C344.28324219 276.3815625 343.44148437 276.763125 342.57421875 277.15625 C341.76855469 277.5171875 340.96289062 277.878125 340.1328125 278.25 C339.38918457 278.58515625 338.64555664 278.9203125 337.87939453 279.265625 C336 280 336 280 334 280 C334.32484375 281.53720703 334.32484375 281.53720703 334.65625 283.10546875 C334.93775834 284.46609241 335.21899395 285.82677251 335.5 287.1875 C335.64308594 287.86103516 335.78617188 288.53457031 335.93359375 289.22851562 C336.69971814 292.96793227 337 296.14087274 337 300 C344.59 300 352.18 300 360 300 C362.14285714 313.25892857 362.14285714 313.25892857 362 318 C359.08503169 318.8397028 356.1682814 319.67196003 353.25 320.5 C352.425 320.73847656 351.6 320.97695313 350.75 321.22265625 C349.55117187 321.56103516 349.55117187 321.56103516 348.328125 321.90625 C347.22839355 322.22045898 347.22839355 322.22045898 346.10644531 322.54101562 C344 323 344 323 340 323 C340.33 323.66 340.66 324.32 341 325 C341.15004973 326.3734635 341.24838006 327.7528526 341.31640625 329.1328125 C341.35451416 329.85871582 341.39262207 330.58461914 341.43188477 331.33251953 C341.47498779 332.25403809 341.51809082 333.17555664 341.5625 334.125 C341.706875 337.05375 341.85125 339.9825 342 343 C352.89 344.485 352.89 344.485 364 346 C364 351.94 364 357.88 364 364 C356.74 364.99 349.48 365.98 342 367 C341.67 373.27 341.34 379.54 341 386 C347.93 387.98 354.86 389.96 362 392 C361.125 404.375 361.125 404.375 360 410 C352.41 410 344.82 410 337 410 C336.67 413.3 336.34 416.6 336 420 C335.68178204 421.88143465 335.33731417 423.75920053 334.9375 425.625 C334.76089844 426.46289062 334.58429687 427.30078125 334.40234375 428.1640625 C334.26957031 428.76992188 334.13679687 429.37578125 334 430 C335.258125 430.391875 336.51625 430.78375 337.8125 431.1875 C343.40212552 433.03884094 348.68268207 435.48545526 354 438 C353.71410149 439.70930812 353.42098242 441.41740912 353.125 443.125 C352.96257813 444.07632812 352.80015625 445.02765625 352.6328125 446.0078125 C351.97737066 449.10700044 351.05397821 452.01520457 350 455 C347.47891897 454.85775413 344.95819597 454.71129879 342.4375 454.5625 C341.38079102 454.50352539 341.38079102 454.50352539 340.30273438 454.44335938 C335.8201459 454.17481721 331.43706503 453.69383803 327 453 C326.80664062 453.71285156 326.61328125 454.42570312 326.4140625 455.16015625 C326.02347656 456.59681641 326.02347656 456.59681641 325.625 458.0625 C325.36976563 459.00222656 325.11453125 459.94195313 324.8515625 460.91015625 C323.92295489 464.2795536 322.96015528 467.63945652 322 471 C327.94 474.63 333.88 478.26 340 482 C339.15813297 486.20933513 338.10885537 489.41267079 336.4375 493.3125 C335.98246094 494.38113281 335.52742187 495.44976563 335.05859375 496.55078125 C334.70925781 497.35902344 334.35992188 498.16726563 334 499 C332.75863281 498.72285156 331.51726563 498.44570313 330.23828125 498.16015625 C328.59636049 497.79424248 326.95443305 497.42835864 325.3125 497.0625 C324.49587891 496.88009766 323.67925781 496.69769531 322.83789062 496.50976562 C318.89917517 495.63272372 314.96208805 494.76659545 311 494 C310.82984375 494.556875 310.6596875 495.11375 310.484375 495.6875 C308.76684063 501.09590609 306.64657745 505.98062896 304 511 C306.26976982 512.79302821 308.54076244 514.58446793 310.8125 516.375 C311.45509766 516.88289062 312.09769531 517.39078125 312.75976562 517.9140625 C313.38173828 518.40390625 314.00371094 518.89375 314.64453125 519.3984375 C315.21534424 519.84880371 315.78615723 520.29916992 316.37426758 520.76318359 C317.87201655 521.90263341 319.43415344 522.95610229 321 524 C319.57250019 527.79049707 317.83763458 531.27122456 315.875 534.8125 C315.06675781 536.27623047 315.06675781 536.27623047 314.2421875 537.76953125 C313.62730469 538.87361328 313.62730469 538.87361328 313 540 C307.78239069 539.21433682 303.15115057 537.08085691 298.3515625 534.99609375 C294.27840205 533.19329066 294.27840205 533.19329066 290 534 C288.12254547 536.4055261 288.12254547 536.4055261 286.375 539.3125 C285.76398437 540.27800781 285.15296875 541.24351562 284.5234375 542.23828125 C282.73458717 545.47111643 282.73458717 545.47111643 282 549 C283.14993696 550.84064628 283.14993696 550.84064628 284.96484375 552.453125 C285.59970703 553.071875 286.23457031 553.690625 286.88867188 554.328125 C287.56478516 554.96234375 288.24089844 555.5965625 288.9375 556.25 C289.94586914 557.22453125 289.94586914 557.22453125 290.97460938 558.21875 C292.63912593 559.82424114 294.31415428 561.41696904 296 563 C294.59601721 567.10110762 292.62912962 569.98089159 289.875 573.3125 C288.78832031 574.63701172 288.78832031 574.63701172 287.6796875 575.98828125 C287.12539063 576.65214844 286.57109375 577.31601562 286 578 C281.50675151 576.34229667 277.38813854 574.15017838 273.1875 571.875 C272.49462891 571.50246094 271.80175781 571.12992188 271.08789062 570.74609375 C269.39065164 569.83309623 267.69514862 568.91687284 266 568 C264.93076177 569.01377342 263.87003958 570.03652876 262.8125 571.0625 C261.92498047 571.91521484 261.92498047 571.91521484 261.01953125 572.78515625 C258.38176386 575.67802687 256.23443021 578.78535342 254 582 C254.36875244 582.46374023 254.73750488 582.92748047 255.11743164 583.40527344 C256.77911209 585.51005114 258.4208291 587.62958485 260.0625 589.75 C260.64322266 590.47960937 261.22394531 591.20921875 261.82226562 591.9609375 C262.36689453 592.66992188 262.91152344 593.37890625 263.47265625 594.109375 C263.98062744 594.75874023 264.48859863 595.40810547 265.01196289 596.07714844 C266 598 266 598 265.80078125 600.08203125 C264.5299203 603.12589822 262.29466385 604.9823487 259.9375 607.25 C259.01839844 608.14203125 258.09929688 609.0340625 257.15234375 609.953125 C256.44207031 610.62859375 255.73179687 611.3040625 255 612 C250.32800909 610.46906512 246.97829995 607.89242605 243.1875 604.875 C242.59001953 604.40707031 241.99253906 603.93914063 241.37695312 603.45703125 C239.91383208 602.30994435 238.45633703 601.15568766 237 600 C233.10082032 601.61537444 230.28706228 604.27924873 227.25 607.125 C226.74339844 607.59292969 226.23679687 608.06085937 225.71484375 608.54296875 C224.47280859 609.69126541 223.23588506 610.84508672 222 612 C222.3081665 612.52956299 222.61633301 613.05912598 222.93383789 613.60473633 C224.32064764 616.00137686 225.69167897 618.40668157 227.0625 620.8125 C227.79049805 622.06256836 227.79049805 622.06256836 228.53320312 623.33789062 C228.98759766 624.14033203 229.44199219 624.94277344 229.91015625 625.76953125 C230.33433838 626.50792236 230.75852051 627.24631348 231.19555664 628.00708008 C232 630 232 630 231 633 C229.00808238 634.65469197 227.03653505 636.18339146 224.9375 637.6875 C224.36966797 638.10322266 223.80183594 638.51894531 223.21679688 638.94726562 C221.81596827 639.97140082 220.40859652 640.98657535 219 642 C213.68123328 638.26554677 209.18891243 634.29871787 204.859375 629.44140625 C203.14919255 627.80673074 203.14919255 627.80673074 201.15625 628.0234375 C198.12223782 629.39753722 195.49662071 631.1816619 192.75 633.0625 C191.67234375 633.79597656 190.5946875 634.52945313 189.484375 635.28515625 C188.25460937 636.13400391 188.25460937 636.13400391 187 637 C188.83239576 642.74705944 190.90813602 648.2524648 193.42578125 653.73828125 C194 656 194 656 193.51953125 658.05859375 C191.32776634 660.85886923 188.49508241 662.19662564 185.375 663.75 C184.76398437 664.06582031 184.15296875 664.38164063 183.5234375 664.70703125 C182.02094261 665.48175518 180.51114982 666.24229671 179 667 C174.0827555 661.51480629 169.46300929 655.8602432 165 650 C163.94039062 650.5053125 162.88078125 651.010625 161.7890625 651.53125 C160.40113686 652.18770131 159.01311081 652.84394033 157.625 653.5 C156.92632813 653.83386719 156.22765625 654.16773438 155.5078125 654.51171875 C150.2265625 657 150.2265625 657 148 657 C148.15146484 657.59014893 148.30292969 658.18029785 148.45898438 658.78833008 C149.14302079 661.46212319 149.82156848 664.1372795 150.5 666.8125 C150.73847656 667.74126953 150.97695313 668.67003906 151.22265625 669.62695312 C151.44824219 670.51962891 151.67382812 671.41230469 151.90625 672.33203125 C152.11572266 673.15421143 152.32519531 673.9763916 152.54101562 674.82348633 C153 677 153 677 153 680 C150.73192796 681.0067004 148.46092246 682.00551766 146.1875 683 C145.54490234 683.28617188 144.90230469 683.57234375 144.24023438 683.8671875 C141.32243531 685.13711041 139.21734286 686 136 686 C134.74145508 684.47119141 134.74145508 684.47119141 133.51953125 682.3515625 C133.07802734 681.59359375 132.63652344 680.835625 132.18164062 680.0546875 C131.72982422 679.25289062 131.27800781 678.45109375 130.8125 677.625 C130.34908203 676.8309375 129.88566406 676.036875 129.40820312 675.21875 C126 669.29580495 126 669.29580495 126 667 C124.79601562 667.433125 123.59203125 667.86625 122.3515625 668.3125 C120.77610058 668.87516497 119.20057651 669.43765597 117.625 670 C116.8309375 670.28617188 116.036875 670.57234375 115.21875 670.8671875 C114.45820312 671.13789062 113.69765625 671.40859375 112.9140625 671.6875 C112.2123291 671.93886719 111.5105957 672.19023438 110.78759766 672.44921875 C109 673 109 673 107 673 C107.144375 673.99 107.28875 674.98 107.4375 676 C108.38709945 682.68866708 109.27646096 689.22670653 109 696 C106.73050898 696.67155349 104.4596039 697.3373963 102.1875 698 C100.92292969 698.37125 99.65835937 698.7425 98.35546875 699.125 C95 700 95 700 92 700 C89.03 693.4 86.06 686.8 83 680 C78.24274796 680.98296345 78.24274796 680.98296345 73.48730469 681.97460938 C70.22041203 682.63888341 67.35146046 683 64 683 C64 690.59 64 698.18 64 706 C58.39 706.66 52.78 707.32 47 708 C43.53448276 698.75862069 43.53448276 698.75862069 42.3125 694.75 C42.06113281 693.94046875 41.80976562 693.1309375 41.55078125 692.296875 C41 690 41 690 41 686 C40.01 686.33 39.02 686.66 38 687 C36.66474283 687.07973476 35.32587917 687.10771338 33.98828125 687.09765625 C33.23095703 687.09443359 32.47363281 687.09121094 31.69335938 687.08789062 C30.90767578 687.07951172 30.12199219 687.07113281 29.3125 687.0625 C28.51521484 687.05798828 27.71792969 687.05347656 26.89648438 687.04882812 C24.93095743 687.0370585 22.96546915 687.01912348 21 687 C20.95101563 687.73863281 20.90203125 688.47726562 20.8515625 689.23828125 C20.33233191 696.28370319 19.36790599 703.06927632 18 710 C12.06 710 6.12 710 0 710 C-1.485 698.615 -1.485 698.615 -3 687 C-9.27 687 -15.54 687 -22 687 C-23.98 693.93 -25.96 700.86 -28 708 C-33.94 707.34 -39.88 706.68 -46 706 C-46 698.41 -46 690.82 -46 683 C-48.97 682.67 -51.94 682.34 -55 682 C-57.02494198 681.6701343 -59.04687798 681.32021304 -61.0625 680.9375 C-62.00222656 680.76089844 -62.94195313 680.58429687 -63.91015625 680.40234375 C-64.59980469 680.26957031 -65.28945313 680.13679687 -66 680 C-66.391875 681.258125 -66.78375 682.51625 -67.1875 683.8125 C-69.03884094 689.40212552 -71.48545526 694.68268207 -74 700 C-75.52157311 699.71221756 -77.04222053 699.41953999 -78.5625 699.125 C-79.40941406 698.96257813 -80.25632812 698.80015625 -81.12890625 698.6328125 C-84.46539036 697.89742417 -87.72305299 696.96404622 -91 696 C-90.03644647 680.25512528 -90.03644647 680.25512528 -89 673 C-89.71285156 672.80664062 -90.42570313 672.61328125 -91.16015625 672.4140625 C-92.59681641 672.02347656 -92.59681641 672.02347656 -94.0625 671.625 C-95.00222656 671.36976563 -95.94195312 671.11453125 -96.91015625 670.8515625 C-100.2795536 669.92295489 -103.63945652 668.96015528 -107 668 C-110.63 673.94 -114.26 679.88 -118 686 C-122.20933513 685.15813297 -125.41267079 684.10885537 -129.3125 682.4375 C-130.38113281 681.98246094 -131.44976562 681.52742187 -132.55078125 681.05859375 C-133.35902344 680.70925781 -134.16726563 680.35992188 -135 680 C-134.35482025 677.08318736 -133.7088818 674.16654627 -133.0625 671.25 C-132.88009766 670.425 -132.69769531 669.6 -132.50976562 668.75 C-132.33251953 667.95078125 -132.15527344 667.1515625 -131.97265625 666.328125 C-131.81031494 665.5949707 -131.64797363 664.86181641 -131.48071289 664.10644531 C-131.01471384 662.06447489 -130.50798323 660.03193292 -130 658 C-135.61 655.36 -141.22 652.72 -147 650 C-150.48723248 654.47054041 -150.48723248 654.47054041 -153.9699707 658.94458008 C-154.40913818 659.50556396 -154.84830566 660.06654785 -155.30078125 660.64453125 C-155.74591064 661.21534424 -156.19104004 661.78615723 -156.6496582 662.37426758 C-158.01546416 664.01861794 -159.46578334 665.5130506 -161 667 C-163.31632275 665.71481447 -165.62796942 664.42228734 -167.9375 663.125 C-168.59685547 662.76019531 -169.25621094 662.39539063 -169.93554688 662.01953125 C-174.88671875 659.2265625 -174.88671875 659.2265625 -176 657 C-175.45507813 655.16821289 -175.45507813 655.16821289 -174.53125 652.97265625 C-174.04591797 651.78446289 -174.04591797 651.78446289 -173.55078125 650.57226562 C-172.85165171 648.90241161 -172.15113593 647.23313728 -171.44921875 645.56445312 C-171.12566406 644.77103516 -170.80210937 643.97761719 -170.46875 643.16015625 C-170.16388672 642.43449463 -169.85902344 641.70883301 -169.54492188 640.96118164 C-168.75162429 638.81402887 -168.75162429 638.81402887 -170 636 C-172.62901556 633.82330335 -172.62901556 633.82330335 -175.8125 631.75 C-176.87082031 631.02296875 -177.92914063 630.2959375 -179.01953125 629.546875 C-181.73903234 627.78520298 -181.73903234 627.78520298 -183.98413086 628.21948242 C-186.31274324 629.12109 -187.49981923 630.1548138 -189.234375 631.94140625 C-189.80800781 632.52470703 -190.38164062 633.10800781 -190.97265625 633.70898438 C-191.55917969 634.32064453 -192.14570313 634.93230469 -192.75 635.5625 C-193.35199219 636.17802734 -193.95398438 636.79355469 -194.57421875 637.42773438 C-196.05634381 638.94514813 -197.5290967 640.47170596 -199 642 C-202.55172144 640.29065092 -205.57442665 638.21887557 -208.75 635.875 C-209.73484375 635.15054688 -210.7196875 634.42609375 -211.734375 633.6796875 C-212.48203125 633.12539063 -213.2296875 632.57109375 -214 632 C-212.27502493 627.3970402 -210.0904129 623.06744176 -207.875 618.6875 C-207.50246094 617.94693359 -207.12992188 617.20636719 -206.74609375 616.44335938 C-205.83255194 614.62798783 -204.91652513 612.81386718 -204 611 C-210.435 605.555 -210.435 605.555 -217 600 C-219.78358534 601.39179267 -221.9859053 602.60093161 -224.453125 604.3828125 C-225.38125 605.04990234 -225.38125 605.04990234 -226.328125 605.73046875 C-227.27945313 606.42076172 -227.27945313 606.42076172 -228.25 607.125 C-228.8996875 607.59292969 -229.549375 608.06085937 -230.21875 608.54296875 C-231.81435483 609.69274282 -233.40743025 610.84602566 -235 612 C-239.97959104 607.91673535 -243.68668581 604.03219988 -248 599 C-242.06 591.08 -242.06 591.08 -236 583 C-237.90055197 579.19889605 -239.91912158 576.49705411 -242.625 573.25 C-243.44226563 572.26515625 -244.25953125 571.2803125 -245.1015625 570.265625 C-245.72804688 569.51796875 -246.35453125 568.7703125 -247 568 C-249.23044611 569.10164118 -251.45935646 570.20621894 -253.6875 571.3125 C-254.31333984 571.62123047 -254.93917969 571.92996094 -255.58398438 572.24804688 C-258.40285242 573.65010166 -261.14458987 575.0883494 -263.83203125 576.73046875 C-266 578 -266 578 -268 578 C-269.78770907 575.8664718 -271.46872824 573.73155942 -273.125 571.5 C-273.59292969 570.87996094 -274.06085938 570.25992188 -274.54296875 569.62109375 C-275.70096609 568.08497483 -276.85121357 566.54301941 -278 565 C-274.63715154 559.597391 -270.64922922 555.67161934 -265.94921875 551.3671875 C-263.80966852 549.26458014 -263.80966852 549.26458014 -263.953125 547.0859375 C-265.43356248 544.13611058 -267.19792012 541.47287855 -269.0625 538.75 C-270.16271484 537.13351562 -270.16271484 537.13351562 -271.28515625 535.484375 C-271.85105469 534.66453125 -272.41695313 533.8446875 -273 533 C-278.75029693 534.83342801 -284.30577199 536.90538583 -289.8359375 539.328125 C-292 540 -292 540 -295 539 C-296.859375 536.41796875 -296.859375 536.41796875 -298.75 533.1875 C-299.38421875 532.12917969 -300.0184375 531.07085938 -300.671875 529.98046875 C-302 527 -302 527 -301.79418945 525.00219727 C-300.81602517 522.53618887 -299.71147588 521.60046875 -297.62109375 519.984375 C-296.94755859 519.45585938 -296.27402344 518.92734375 -295.58007812 518.3828125 C-294.87302734 517.84398437 -294.16597656 517.30515625 -293.4375 516.75 C-292.72658203 516.19570313 -292.01566406 515.64140625 -291.28320312 515.0703125 C-289.52883426 513.70449513 -287.76783576 512.34831168 -286 511 C-286.5053125 509.94039062 -287.010625 508.88078125 -287.53125 507.7890625 C-288.18770131 506.40113686 -288.84394033 505.01311081 -289.5 503.625 C-289.83386719 502.92632813 -290.16773438 502.22765625 -290.51171875 501.5078125 C-293 496.2265625 -293 496.2265625 -293 494 C-293.62567871 494.15146484 -294.25135742 494.30292969 -294.89599609 494.45898438 C-297.7217708 495.1416655 -300.5483688 495.82087432 -303.375 496.5 C-304.85226562 496.85771484 -304.85226562 496.85771484 -306.359375 497.22265625 C-307.30039062 497.44824219 -308.24140625 497.67382812 -309.2109375 497.90625 C-310.08024902 498.11572266 -310.94956055 498.32519531 -311.84521484 498.54101562 C-314 499 -314 499 -316 499 C-317.00419637 496.5433053 -318.00350501 494.08481647 -319 491.625 C-319.28617187 490.92632813 -319.57234375 490.22765625 -319.8671875 489.5078125 C-322 484.2265625 -322 484.2265625 -322 482 C-320.47119141 480.85498047 -320.47119141 480.85498047 -318.3515625 479.6171875 C-317.59359375 479.17246094 -316.835625 478.72773437 -316.0546875 478.26953125 C-314.85199219 477.57923828 -314.85199219 477.57923828 -313.625 476.875 C-312.8309375 476.40707031 -312.036875 475.93914062 -311.21875 475.45703125 C-305.2722531 472 -305.2722531 472 -303 472 C-303.433125 470.79601562 -303.86625 469.59203125 -304.3125 468.3515625 C-304.87516497 466.77610058 -305.43765597 465.20057651 -306 463.625 C-306.28617187 462.8309375 -306.57234375 462.036875 -306.8671875 461.21875 C-307.27324219 460.07792969 -307.27324219 460.07792969 -307.6875 458.9140625 C-308.06455078 457.8614624 -308.06455078 457.8614624 -308.44921875 456.78759766 C-309 455 -309 455 -309 453 C-310.07378906 453.144375 -311.14757812 453.28875 -312.25390625 453.4375 C-313.69007356 453.62523429 -315.12627324 453.81272109 -316.5625 454 C-317.61920898 454.14308594 -317.61920898 454.14308594 -318.69726562 454.2890625 C-319.39658203 454.37929688 -320.09589844 454.46953125 -320.81640625 454.5625 C-321.76688843 454.68818359 -321.76688843 454.68818359 -322.73657227 454.81640625 C-325.81487789 455.06609731 -328.91158437 455 -332 455 C-333.32 449.39 -334.64 443.78 -336 438 C-329.4 435.03 -322.8 432.06 -316 429 C-316.98296345 424.24274796 -316.98296345 424.24274796 -317.97460938 419.48730469 C-318.63888341 416.22041203 -319 413.35146046 -319 410 C-326.59 410 -334.18 410 -342 410 C-342.66 404.06 -343.32 398.12 -344 392 C-341.08503169 391.1602972 -338.1682814 390.32803997 -335.25 389.5 C-334.425 389.26152344 -333.6 389.02304687 -332.75 388.77734375 C-331.95078125 388.55175781 -331.1515625 388.32617188 -330.328125 388.09375 C-329.5949707 387.88427734 -328.86181641 387.67480469 -328.10644531 387.45898438 C-326 387 -326 387 -322 387 C-322.16371094 386.33613281 -322.32742188 385.67226563 -322.49609375 384.98828125 C-323.10603857 381.37116663 -323.10795513 377.84139292 -323.0625 374.1875 C-323.05798828 373.49462891 -323.05347656 372.80175781 -323.04882812 372.08789062 C-323.03713156 370.39188932 -323.01919924 368.69593297 -323 367 C-324.24136719 366.86722656 -325.48273438 366.73445313 -326.76171875 366.59765625 C-328.40365861 366.41938849 -330.04558499 366.24099654 -331.6875 366.0625 C-332.50412109 365.97548828 -333.32074219 365.88847656 -334.16210938 365.79882812 C-334.95810547 365.71181641 -335.75410156 365.62480469 -336.57421875 365.53515625 C-337.30213623 365.456604 -338.03005371 365.37805176 -338.7800293 365.29711914 C-341.20360685 364.97274942 -343.60229599 364.4795408 -346 364 C-346 358.06 -346 352.12 -346 346 C-342.91724335 345.49620319 -339.83388144 344.9968227 -336.75 344.5 C-335.87730469 344.35691406 -335.00460937 344.21382812 -334.10546875 344.06640625 C-333.26113281 343.93105469 -332.41679687 343.79570313 -331.546875 343.65625 C-330.77182617 343.53056641 -329.99677734 343.40488281 -329.19824219 343.27539062 C-327 343 -327 343 -323 343 C-323.01160156 341.97519531 -323.02320313 340.95039062 -323.03515625 339.89453125 C-323.04454022 338.533856 -323.05363977 337.17317876 -323.0625 335.8125 C-323.07087891 335.13896484 -323.07925781 334.46542969 -323.08789062 333.77148438 C-323.10606538 330.04565869 -322.89299392 326.6211958 -322 323 C-322.99128906 322.87753906 -323.98257812 322.75507812 -325.00390625 322.62890625 C-329.07752002 322.04696143 -332.97746795 321.0369422 -336.9375 319.9375 C-339.268125 319.298125 -341.59875 318.65875 -344 318 C-343.34 312.06 -342.68 306.12 -342 300 C-334.41 300 -326.82 300 -319 300 C-318.67 297.03 -318.34 294.06 -318 291 C-317.34 287.7 -316.68 284.4 -316 281 C-322.6 278.03 -329.2 275.06 -336 272 C-334.68 266.39 -333.36 260.78 -332 255 C-329.504375 255.144375 -327.00875 255.28875 -324.4375 255.4375 C-323.66591553 255.48060303 -322.89433105 255.52370605 -322.09936523 255.56811523 C-317.68568353 255.83416232 -313.36886674 256.31682636 -309 257 C-308.81824219 256.29875 -308.63648438 255.5975 -308.44921875 254.875 C-306.92000933 249.10321471 -305.19945637 243.55100893 -303 238 C-303.84820312 237.75507813 -304.69640625 237.51015625 -305.5703125 237.2578125 C-309.32051876 235.88245212 -312.53081111 234.01618881 -315.875 231.875 C-316.46796875 231.50246094 -317.0609375 231.12992188 -317.671875 230.74609375 C-319.1181343 229.83635 -320.55958046 228.91896202 -322 228 C-320.33846988 222.14340094 -318.52958084 216.5409866 -316 211 C-308.28835349 212.47966129 -300.64343712 214.20295366 -293 216 C-292.72414063 215.13117188 -292.44828125 214.26234375 -292.1640625 213.3671875 C-290.44996087 208.40894722 -288.20536198 203.758939 -286 199 C-291.28 194.71 -296.56 190.42 -302 186 C-301.04840558 181.24202791 -300.04249682 179.11867702 -297.4375 175.1875 C-296.79683594 174.21167969 -296.15617187 173.23585938 -295.49609375 172.23046875 C-295.00238281 171.49441406 -294.50867188 170.75835937 -294 170 C-288.24970307 171.83342801 -282.69422801 173.90538583 -277.1640625 176.328125 C-274.85493475 177.27569993 -274.85493475 177.27569993 -272 176 C-269.82330335 173.37098444 -269.82330335 173.37098444 -267.75 170.1875 C-267.02296875 169.12917969 -266.2959375 168.07085937 -265.546875 166.98046875 C-263.85093958 164.25209337 -263.85093958 164.25209337 -263.9609375 161.921875 C-265.47962241 159.11287885 -267.55457133 157.24504813 -269.875 155.0625 C-273.41380913 151.72487681 -275.43477474 149.27537543 -278 145 C-274.7 140.71 -271.4 136.42 -268 132 C-261.25 134.25 -261.25 134.25 -258.3515625 135.9453125 C-257.73925781 136.29980469 -257.12695312 136.65429688 -256.49609375 137.01953125 C-255.87863281 137.38433594 -255.26117188 137.74914062 -254.625 138.125 C-253.98433594 138.49753906 -253.34367187 138.87007812 -252.68359375 139.25390625 C-251.11951523 140.16434002 -249.55934466 141.08148191 -248 142 C-244.94367141 138.98590047 -241.99458416 135.93491108 -239.1875 132.6875 C-238.28064453 131.64142578 -238.28064453 131.64142578 -237.35546875 130.57421875 C-236.90816406 130.05472656 -236.46085937 129.53523437 -236 129 C-237.81366403 124.87235084 -240.49146618 121.37940795 -243.125 117.75 C-243.59292969 117.1003125 -244.06085938 116.450625 -244.54296875 115.78125 C-245.69274282 114.18564517 -246.84602566 112.59256975 -248 111 C-246.46751951 107.41597305 -244.3325399 104.97149866 -241.625 102.1875 C-240.46871094 100.97126953 -240.46871094 100.97126953 -239.2890625 99.73046875 C-237 98 -237 98 -235.08642578 98.23535156 C-232.83335567 99.06107302 -231.245428 100.065929 -229.328125 101.50390625 C-228.66425781 101.99697266 -228.00039063 102.49003906 -227.31640625 102.99804688 C-226.29353516 103.77245117 -226.29353516 103.77245117 -225.25 104.5625 C-224.55261719 105.08263672 -223.85523438 105.60277344 -223.13671875 106.13867188 C-221.42025444 107.42014181 -219.70955569 108.70932798 -218 110 C-217.44393066 109.5877417 -216.88786133 109.1754834 -216.31494141 108.75073242 C-214.98860677 107.76741536 -213.66227214 106.78409831 -212.3359375 105.80078125 C-209.4909406 103.60756458 -206.74926264 101.31205898 -204 99 C-204.83144531 97.35451172 -204.83144531 97.35451172 -205.6796875 95.67578125 C-206.41156558 94.22140813 -207.14333045 92.76697804 -207.875 91.3125 C-208.23980469 90.59126953 -208.60460937 89.87003906 -208.98046875 89.12695312 C-209.33496094 88.42119141 -209.68945312 87.71542969 -210.0546875 86.98828125 C-210.37937012 86.34415283 -210.70405273 85.70002441 -211.03857422 85.03637695 C-212.12500626 82.73522671 -213.05491274 80.36271816 -214 78 C-209.71 74.7 -205.42 71.4 -201 68 C-197.71713349 69.64143325 -196.42411592 70.34324622 -194.125 72.85546875 C-193.61453125 73.39494141 -193.1040625 73.93441406 -192.578125 74.49023438 C-191.52018382 75.62804487 -190.46813786 76.77136352 -189.421875 77.91992188 C-187.72421448 79.75646739 -187.72421448 79.75646739 -185 82 C-180.93464757 81.52846697 -178.07304684 79.21306469 -174.75 76.9375 C-173.67234375 76.20402344 -172.5946875 75.47054687 -171.484375 74.71484375 C-170.66453125 74.14894531 -169.8446875 73.58304687 -169 73 C-171.03807293 65.8821847 -173.40344742 58.93292719 -176 52 C-174.65114018 51.05488054 -173.29557262 50.1193328 -171.9375 49.1875 C-171.18339844 48.66542969 -170.42929687 48.14335937 -169.65234375 47.60546875 C-166.52503474 45.71250262 -163.38377165 44.37918722 -160 43 C-159.32453125 43.89203125 -158.6490625 44.7840625 -157.953125 45.703125 C-157.05224025 46.88553624 -156.1511898 48.06782124 -155.25 49.25 C-154.8065625 49.83652344 -154.363125 50.42304688 -153.90625 51.02734375 C-153.46796875 51.60097656 -153.0296875 52.17460937 -152.578125 52.765625 C-152.18012695 53.28930664 -151.78212891 53.81298828 -151.37207031 54.35253906 C-149.70936409 56.34896995 -147.83716198 58.16283802 -146 60 C-140.72 57.36 -135.44 54.72 -130 52 C-130.3609375 50.57945312 -130.721875 49.15890625 -131.09375 47.6953125 C-131.56262364 45.83857288 -132.0313669 43.98180034 -132.5 42.125 C-132.73847656 41.18785156 -132.97695313 40.25070312 -133.22265625 39.28515625 C-133.44824219 38.38925781 -133.67382812 37.49335938 -133.90625 36.5703125 C-134.22045898 35.32918701 -134.22045898 35.32918701 -134.54101562 34.06298828 C-135 32 -135 32 -135 30 C-132.75564555 28.96483652 -130.50593133 27.94685023 -128.25 26.9375 C-127.61578125 26.64294922 -126.9815625 26.34839844 -126.328125 26.04492188 C-121.58888573 23.94682116 -121.58888573 23.94682116 -118.9453125 24.18554688 C-116.39044388 25.25520572 -115.77125126 26.4194879 -114.421875 28.81640625 C-113.98359375 29.58017578 -113.5453125 30.34394531 -113.09375 31.13085938 C-112.6503125 31.93330078 -112.206875 32.73574219 -111.75 33.5625 C-111.29109375 34.36880859 -110.8321875 35.17511719 -110.359375 36.00585938 C-109.22791753 37.99769597 -108.10884955 39.99551682 -107 42 C-105.86820313 41.6390625 -104.73640625 41.278125 -103.5703125 40.90625 C-102.08858907 40.43735018 -100.60681563 39.96860836 -99.125 39.5 C-98.37863281 39.26152344 -97.63226563 39.02304687 -96.86328125 38.77734375 C-91.2265625 37 -91.2265625 37 -89 37 C-89.144375 35.92621094 -89.28875 34.85242188 -89.4375 33.74609375 C-89.62523429 32.30992644 -89.81272109 30.87372676 -90 29.4375 C-90.14308594 28.38079102 -90.14308594 28.38079102 -90.2890625 27.30273438 C-90.86666417 22.82632145 -91.09489383 18.51338762 -91 14 C-88.75376301 13.30030318 -86.50283586 12.61564957 -84.25 11.9375 C-82.99703125 11.55464844 -81.7440625 11.17179688 -80.453125 10.77734375 C-75.98748103 9.77206869 -75.98748103 9.77206869 -73 11 C-71.90332031 12.64233398 -71.90332031 12.64233398 -71.078125 14.74609375 C-70.77519531 15.50083984 -70.47226562 16.25558594 -70.16015625 17.03320312 C-69.70962891 18.22333008 -69.70962891 18.22333008 -69.25 19.4375 C-68.93417969 20.22705078 -68.61835937 21.01660156 -68.29296875 21.83007812 C-66 27.65183644 -66 27.65183644 -66 30 C-64.89140625 29.7834375 -63.7828125 29.566875 -62.640625 29.34375 C-61.17712047 29.06230682 -59.71357673 28.7810675 -58.25 28.5 C-57.52039063 28.35691406 -56.79078125 28.21382813 -56.0390625 28.06640625 C-52.60656468 27.41111121 -49.50830509 27 -46 27 C-46 19.41 -46 11.82 -46 4 C-37.09 3.01 -37.09 3.01 -28 2 C-26.02 8.93 -24.04 15.86 -22 23 C-15.73 23 -9.46 23 -3 23 C-1.515 11.615 -1.515 11.615 0 0 Z M-216.00390625 141.9140625 C-219.12888356 145.17969436 -222.09989561 148.53308204 -225 152 C-225.45358887 152.53979492 -225.90717773 153.07958984 -226.37451172 153.63574219 C-239.88746515 169.77873353 -251.54543348 186.72785302 -262 205 C-262.40847168 205.71091797 -262.81694336 206.42183594 -263.23779297 207.15429688 C-285.86764505 246.96765509 -299.85193044 295.50646943 -300.23828125 341.38671875 C-300.2480751 342.35421555 -300.25786896 343.32171234 -300.26795959 344.31852722 C-300.65188714 392.13602177 -293.36567826 436.95843178 -274 481 C-273.47067871 482.21333008 -273.47067871 482.21333008 -272.93066406 483.45117188 C-260.32274169 512.05106289 -242.52780895 538.65047307 -221.265625 561.55078125 C-219.29242483 563.68387867 -217.38705297 565.85358987 -215.5 568.0625 C-208.91744117 575.62082638 -201.69290753 582.58304975 -194 589 C-193.46165527 589.45213867 -192.92331055 589.90427734 -192.36865234 590.37011719 C-176.22804174 603.88178105 -159.28262492 615.56672502 -141 626 C-140.24025879 626.43554199 -139.48051758 626.87108398 -138.69775391 627.31982422 C-69.6104254 666.47784153 14.9016837 674.28191809 91.046875 653.97265625 C110.83784874 648.47240099 129.57704081 641.05046937 148 632 C148.78165527 631.61875977 149.56331055 631.23751953 150.36865234 630.84472656 C173.57540277 619.40832487 194.56789171 603.97725418 214 587 C214.825 586.28714844 215.65 585.57429687 216.5 584.83984375 C227.9352973 574.77753445 238.61922792 564.00476426 248 552 C248.95054295 550.83642756 249.90384331 549.67510416 250.859375 548.515625 C257.82435409 540.02566329 264.13812228 531.2843864 270 522 C270.36657715 521.42378906 270.7331543 520.84757812 271.11083984 520.25390625 C315.24160831 450.40493759 328.88496166 366.24694316 311.29589844 285.77880859 C309.7455052 279.1219276 307.95403316 272.54900805 306 266 C305.73993164 265.12617676 305.47986328 264.25235352 305.21191406 263.35205078 C294.11495349 226.78097814 275.77948815 192.82403946 252 163 C251.20851563 161.99453125 250.41703125 160.9890625 249.6015625 159.953125 C236.74373202 143.89244144 222.19123517 128.695152 206 116 C204.83528009 115.04796514 203.67263933 114.09338287 202.51171875 113.13671875 C194.02253447 106.17378024 185.28280729 99.86088072 176 94 C175.42378906 93.63342285 174.84757812 93.2668457 174.25390625 92.88916016 C82.32648798 34.80916715 -33.79704382 30.34997378 -216.00390625 141.9140625 Z " fill="#0033A0" transform="translate(582,236)"/>
<path d="M0 0 C1.81757812 -0.0309375 1.81757812 -0.0309375 3.671875 -0.0625 C15.18133746 -0.11265016 22.82555663 2.46934391 31.3125 10.5 C35.03742831 13.86537925 38.99576103 16.00474322 43.4375 18.25 C51.40594646 22.34842071 56.80171676 26.00196004 60.3125 34.5625 C63.30010332 44.02971053 62.37757865 51.44950536 57.875 60.25 C52.41457633 69.49071699 38.53994105 73.91752948 29.875 78.25 C29.545 94.09 29.215 109.93 28.875 126.25 C31.515 124.93 34.155 123.61 36.875 122.25 C37.535 122.25 38.195 122.25 38.875 122.25 C38.875 113.01 38.875 103.77 38.875 94.25 C48.80103671 97.5586789 54.90245202 101.96229174 59.875 111.25 C62.89784851 117.70790364 62.72016078 125.00326152 60.875 131.8125 C55.8569869 144.52479985 44.46499443 149.04689925 32.81103516 154.47485352 C30.875 155.25 30.875 155.25 28.875 155.25 C28.875 173.07 28.875 190.89 28.875 209.25 C32.835 207.27 32.835 207.27 36.875 205.25 C37.535 205.25 38.195 205.25 38.875 205.25 C38.875 196.01 38.875 186.77 38.875 177.25 C48.80103671 180.5586789 54.90245202 184.96229174 59.875 194.25 C62.89784851 200.70790364 62.72016078 208.00326152 60.875 214.8125 C55.31575269 228.85820892 43.49446206 232.11599606 29.875 239.25 C29.545 256.74 29.215 274.23 28.875 292.25 C32.835 290.27 32.835 290.27 36.875 288.25 C37.535 288.25 38.195 288.25 38.875 288.25 C38.875 279.01 38.875 269.77 38.875 260.25 C48.59127192 263.48875731 54.81150363 267.91481531 59.81640625 276.91796875 C62.7994975 283.48957568 62.76697172 290.89952641 60.875 297.8125 C55.31575269 311.85820892 43.49446206 315.11599606 29.875 322.25 C29.545 358.55 29.215 394.85 28.875 432.25 C40.095 432.25 51.315 432.25 62.875 432.25 C74.02518563 443.40018563 74.02518563 443.40018563 74.26446533 450.2923584 C74.24422302 451.23744263 74.22398071 452.18252686 74.203125 453.15625 C74.21269226 454.1615979 74.22225952 455.1669458 74.2321167 456.20275879 C74.23887677 458.31378494 74.22073581 460.4250259 74.17871094 462.53564453 C74.12506668 465.74600967 74.17827392 468.94240726 74.2421875 472.15234375 C74.23557856 474.21617633 74.2227644 476.28000029 74.203125 478.34375 C74.22336731 479.28883423 74.24360962 480.23391846 74.26446533 481.2076416 C74.06998139 486.80952473 72.60106977 490.46292148 69.07299805 494.84643555 C61.40922337 501.7178422 52.10077608 500.71387803 42.37890625 500.61328125 C40.37929329 500.6225733 38.37969163 500.63468134 36.38011169 500.64945984 C32.20111711 500.66864992 28.02426366 500.65144318 23.84545898 500.60864258 C18.51331224 500.55728393 13.18685258 500.60044491 7.85510349 500.67156696 C3.7289379 500.71540831 -0.39589241 500.70681639 -4.52217293 500.6830349 C-6.48640972 500.67824396 -8.45076254 500.68981394 -10.41479301 500.71868324 C-27.19065692 500.91955699 -27.19065692 500.91955699 -33.38352871 495.75020123 C-37.92455446 491.23554809 -40.39701658 486.81820233 -40.65341187 480.42492676 C-40.63114532 479.53188843 -40.60887878 478.6388501 -40.5859375 477.71875 C-40.59646149 476.76158081 -40.60698547 475.80441162 -40.61782837 474.8182373 C-40.62525322 472.81152301 -40.60537632 470.80453381 -40.55908203 468.79833984 C-40.50002661 465.75137312 -40.55860798 462.72220358 -40.62890625 459.67578125 C-40.62163618 457.71089875 -40.60754004 455.7460272 -40.5859375 453.78125 C-40.60820404 452.88821167 -40.63047058 451.99517334 -40.65341187 451.07507324 C-40.25617285 441.16982659 -36.23524401 440.36024401 -28.125 432.25 C-16.905 432.25 -5.685 432.25 5.875 432.25 C5.875 399.91 5.875 367.57 5.875 334.25 C2.575 335.9 -0.725 337.55 -4.125 339.25 C-4.455 348.16 -4.785 357.07 -5.125 366.25 C-14.95914828 362.97195057 -21.30481165 358.56358428 -26.125 349.25 C-29.43485103 340.67447688 -28.44145252 334.22884401 -25.390625 325.86328125 C-19.73006846 314.17528024 -5.98421772 309.67960886 4.875 304.25 C5.205 286.76 5.535 269.27 5.875 251.25 C2.575 252.9 -0.725 254.55 -4.125 256.25 C-4.455 265.16 -4.785 274.07 -5.125 283.25 C-14.95914828 279.97195057 -21.30481165 275.56358428 -26.125 266.25 C-29.4085611 257.74259169 -28.45405526 251.28463246 -25.48828125 242.9609375 C-22.34299584 236.7064158 -18.524132 233.50686146 -12.4375 230.1875 C-11.29925781 229.55714844 -10.16101563 228.92679688 -8.98828125 228.27734375 C-4.40070704 225.86991098 0.24107556 223.56696222 4.875 221.25 C4.875 203.76 4.875 186.27 4.875 168.25 C0.915 170.23 0.915 170.23 -3.125 172.25 C-3.785 172.25 -4.445 172.25 -5.125 172.25 C-5.125 181.49 -5.125 190.73 -5.125 200.25 C-14.95914828 196.97195057 -21.30481165 192.56358428 -26.125 183.25 C-29.40334199 174.75611394 -28.59862665 168.0465115 -25.30859375 159.79296875 C-19.79909056 147.95571932 -6.0445707 143.70978535 4.875 138.25 C5.205 122.41 5.535 106.57 5.875 90.25 C2.575 91.9 -0.725 93.55 -4.125 95.25 C-4.455 104.49 -4.785 113.73 -5.125 123.25 C-22.21285785 114.70607108 -22.21285785 114.70607108 -26.27734375 105.6953125 C-29.08760305 97.17388108 -28.7367203 89.45777628 -25.125 81.25 C-20.25090662 74.28401462 -14.56344185 70.25673482 -7 66.625 C-6.03312256 66.14063477 -5.06624512 65.65626953 -4.07006836 65.15722656 C-1.94240684 64.09397982 0.18974675 63.03968734 2.32568359 61.99316406 C6.24582787 60.06787653 10.14935933 58.11129111 14.05078125 56.1484375 C21.31603205 52.49642332 28.59232747 48.86714752 35.875 45.25 C33.33587699 43.89089763 30.79421861 42.53702171 28.25 41.1875 C27.43128418 40.75284424 26.61256836 40.31818848 25.76904297 39.87036133 C20.2567546 36.96718278 14.70322121 34.16333899 9.109375 31.421875 C7.75731748 30.75660548 6.40526672 30.09132224 5.05322266 29.42602539 C3.03587391 28.4339587 1.01705746 27.44573107 -1.00762939 26.46871948 C-2.92364387 25.54405074 -4.83321148 24.60706332 -6.7421875 23.66796875 C-8.40677002 22.86008911 -8.40677002 22.86008911 -10.10498047 22.03588867 C-13.89413023 19.79517481 -17.1278954 17.2442092 -19.125 13.25 C-19.72373168 7.98116124 -18.37900021 5.3653532 -15.125 1.25 C-10.73802919 -0.94348541 -4.81705761 0.02011298 0 0 Z " fill="#0033A0" transform="translate(574.125,346.75)"/>
<path d="M0 0 C76.89 0 153.78 0 233 0 C233 3.3 233 6.6 233 10 C231.2984375 10.8353125 231.2984375 10.8353125 229.5625 11.6875 C217.77058257 17.60699026 208.33254501 23.34869888 203 36 C199.53359793 46.63513934 200.84849353 55.73048398 205 66 C206.69936463 69.01184221 208.62602561 71.49285143 211 74 C211.46664062 74.50660156 211.93328125 75.01320313 212.4140625 75.53515625 C218.20773887 81.10599891 225.90162477 84.40056648 233 88 C233 88.33 233 88.66 233 89 C218.75565381 91.07850597 204.50155532 92.341722 190.125 93.0625 C189.02465549 93.11799389 187.92431099 93.17348778 186.79062271 93.2306633 C138.28128075 95.37681279 101.57775964 78.76004203 59.6875 56.5625 C58.95515294 56.17517275 58.22280588 55.78784551 57.46826649 55.38878107 C4.18479023 27.18479023 4.18479023 27.18479023 0 23 C0 15.41 0 7.82 0 0 Z " fill="#0033A0" transform="translate(336,635)"/>
<path d="M0 0 C22.61770368 -0.09024312 45.23526193 -0.16394867 67.85309982 -0.20724869 C78.354606 -0.2278867 88.8559925 -0.25603098 99.35742188 -0.30175781 C108.50891932 -0.34158763 117.66033011 -0.36742379 126.81191182 -0.37635398 C131.65904671 -0.38157527 136.50593366 -0.39387287 141.3529892 -0.42292023 C145.91332472 -0.45002844 150.47330967 -0.45845433 155.03371811 -0.45243073 C156.70911691 -0.45353303 158.38452718 -0.46151432 160.05985641 -0.4768219 C162.34476049 -0.49667873 164.62833521 -0.49195602 166.91326904 -0.48101807 C168.83244204 -0.48654882 168.83244204 -0.48654882 170.7903862 -0.49219131 C174 0 174 0 176.38823318 1.79178238 C178.32274668 4.4421824 178.94115702 6.6442181 178.75463867 9.93798828 C175.86633428 17.83013286 161.34525251 22.72832185 154.3125 26.3125 C153.68260162 26.63604462 153.05270325 26.95958923 152.40371704 27.29293823 C137.54504851 34.91475442 122.3551521 41.67222292 106.75 47.625 C106.09990967 47.8732251 105.44981934 48.1214502 104.7800293 48.37719727 C102.02355302 49.39321456 99.96717141 50 97 50 C97.63228516 50.81404297 97.63228516 50.81404297 98.27734375 51.64453125 C98.82519531 52.35996094 99.37304688 53.07539062 99.9375 53.8125 C100.48277344 54.52019531 101.02804687 55.22789062 101.58984375 55.95703125 C105.66541055 61.86152277 104.63965509 71.06586658 104 78 C103.10741226 81.51213872 102.22899339 83.04808984 100 86 C97.25 87.5 97.25 87.5 95 88 C95.03161858 91.32075016 95.03161858 91.32075016 96 95 C97.96185416 96.71140469 99.96302383 98.37873325 102 100 C104.00415312 104.56464306 104.38666017 108.94799379 104.375 113.875 C104.37338867 114.58100342 104.37177734 115.28700684 104.37011719 116.0144043 C104.2340091 121.79299323 103.31238892 125.30744902 100 130 C95.77835866 133.78151278 91.52604467 134.13989987 86 134 C81.22187167 132.40729056 78.8429476 130.10647987 76 126 C74.19751935 122.3950387 74.7296744 118.22001652 74.6875 114.25 C74.64399414 112.90808594 74.64399414 112.90808594 74.59960938 111.5390625 C74.54352871 105.68941783 75.13000052 102.46154636 79 98 C81.25 96.625 81.25 96.625 83 96 C82.85757618 93.15152365 82.73587838 90.72800627 82 88 C79.61881834 85.77831634 79.61881834 85.77831634 77 84 C74.35600266 79.36850807 74.73807786 74.5453806 74.8125 69.375 C74.8134668 68.08722656 74.8134668 68.08722656 74.81445312 66.7734375 C74.83958435 63.19921871 74.860159 60.419523 76 57 C75.34741211 57.16604736 74.69482422 57.33209473 74.02246094 57.50317383 C48.95802875 63.83073583 26.14642973 67 0 67 C0 44.89 0 22.78 0 0 Z M88 62 C86.66098208 63.11126659 86.66098208 63.11126659 86.90234375 65.94140625 C86.91394531 67.13636719 86.92554688 68.33132813 86.9375 69.5625 C86.94652344 70.76003906 86.95554687 71.95757813 86.96484375 73.19140625 C86.97644531 74.11824219 86.98804688 75.04507813 87 76 C88.32 76.33 89.64 76.66 91 77 C92.30459914 74.39080172 92.1326594 72.41057385 92.125 69.5 C92.12757813 68.5203125 92.13015625 67.540625 92.1328125 66.53125 C92.16940053 64.00568946 92.16940053 64.00568946 91 62 C90.01 62 89.02 62 88 62 Z M88 106 C86.12274106 107.87725894 86.78297696 110.92850307 86.75 113.4375 C86.72421875 114.61183594 86.6984375 115.78617188 86.671875 116.99609375 C86.78015625 117.98738281 86.8884375 118.97867188 87 120 C88.485 120.99 88.485 120.99 90 122 C92.30060534 120.1371051 92.30060534 120.1371051 92.1953125 117.1796875 C92.17210937 116.08914063 92.14890625 114.99859375 92.125 113.875 C92.09792969 112.23144531 92.09792969 112.23144531 92.0703125 110.5546875 C92.04710937 109.71164062 92.02390625 108.86859375 92 108 C90.68 107.34 89.36 106.68 88 106 Z " fill="#0033A0" transform="translate(690,646)"/>
<path d="M0 0 C22.11 0 44.22 0 67 0 C67.99 8.25 68.98 16.5 70 25 C73.56619605 36.66242491 77.50795697 44.45775039 88.14453125 50.67578125 C91.96063817 52.44549431 96.00937339 53.66979113 100 55 C100 73.81 100 92.62 100 112 C81.52 112 63.04 112 44 112 C44.1134375 107.854375 44.226875 103.70875 44.34375 99.4375 C44.38940318 96.08497694 44.41872306 92.73317335 44.43721008 89.38043213 C44.46098879 85.86500025 44.51196144 82.35529786 44.63427734 78.84179688 C45.60096659 60.3719227 45.60096659 60.3719227 37.90625 44.23352051 C31.52064602 37.89817636 25.48221936 34.22238085 16.33007812 34.21679688 C15.06615234 34.31025391 13.80222656 34.40371094 12.5 34.5 C6.3125 34.7475 6.3125 34.7475 0 35 C0 23.45 0 11.9 0 0 Z " fill="#0033A0" transform="translate(613,734)"/>
<path d="M0 0 C22.11 0 44.22 0 67 0 C67 11.55 67 23.1 67 35 C54.5 34.5 54.5 34.5 50.66992188 34.21679688 C41.51778064 34.22238085 35.47935398 37.89817636 29.09375 44.23352051 C20.42922905 54.55972294 21.99497014 68.19200148 22.43780518 80.91235352 C22.54246449 84.42537334 22.55484059 87.93877103 22.57421875 91.453125 C22.61858775 98.31015271 22.81227474 105.13949498 23 112 C4.52 112 -13.96 112 -33 112 C-33 93.19 -33 74.38 -33 55 C-28.71 53.35 -24.42 51.7 -20 50 C-11.25616246 44.70443642 -7.11513471 37.73854412 -3.75 28.1875 C-1.50767041 18.97793204 -0.8986591 9.43592051 0 0 Z " fill="#0033A0" transform="translate(502,734)"/>
<path d="M0 0 C11.22 0 22.44 0 34 0 C34 29.37 34 58.74 34 89 C11.89 89 -10.22 89 -33 89 C-33 72.17 -33 55.34 -33 38 C-27.39 35.03 -21.78 32.06 -16 29 C-6.22522756 21.18018205 -2.693581 12.1211145 0 0 Z " fill="#0033A0" transform="translate(646,635)"/>
<path d="M0 0 C3.88424745 1.22929987 7.50741211 2.62654002 11.15415955 4.44000244 C12.14516159 4.9305159 13.13616364 5.42102936 14.15719604 5.92640686 C15.22801422 6.46148361 16.2988324 6.99656036 17.40209961 7.54785156 C18.54265305 8.11396652 19.68320648 8.68008148 20.85832214 9.26335144 C23.97602686 10.81126946 27.09111511 12.36438115 30.20547557 13.91901493 C32.1546395 14.89177072 34.10431781 15.86348759 36.05417061 16.83486176 C42.86598776 20.22853676 49.67551403 23.62676314 56.4831543 27.02880859 C62.81362503 30.19222696 69.14926995 33.34510287 75.48736566 36.49321198 C80.9416484 39.20296979 86.39202761 41.92047048 91.83951384 44.64386535 C95.08738747 46.26740689 98.33675125 47.88777014 101.59016228 49.50019073 C105.22192964 51.30048288 108.8454581 53.11679388 112.46850586 54.93457031 C113.5372998 55.46155014 114.60609375 55.98852997 115.70727539 56.53147888 C123.5653974 60.49914031 130.9125578 64.58072777 134.35546875 73.078125 C135.79153374 79.58828628 135.27374115 86.37698497 135 93 C131.11213125 91.76997148 127.48802017 90.37058623 123.83911133 88.55326843 C122.84666412 88.06130981 121.85421692 87.5693512 120.83169556 87.06248474 C119.75930634 86.52583694 118.68691711 85.98918915 117.58203125 85.4362793 C116.43987152 84.86855804 115.29771179 84.30083679 114.12094116 83.71591187 C110.99920875 82.16384971 107.88006653 80.60665112 104.76159286 79.0480535 C102.81047169 78.07320533 100.85878473 77.09949978 98.90689087 76.12619972 C92.08987255 72.72693133 85.27492478 69.32355306 78.46191406 65.91625977 C72.12285459 62.74612923 65.77938702 59.58495099 59.43378544 56.42793912 C53.975122 53.71170335 48.51957732 50.98927445 43.06639767 48.26204616 C39.8141403 46.63566314 36.56070337 45.01176036 33.30410767 43.39407921 C29.67086725 41.58898173 26.04419777 39.77104584 22.41796875 37.9519043 C21.34557953 37.42132919 20.27319031 36.89075409 19.16830444 36.34410095 C10.89409083 32.17202393 5.15161627 28.45699611 1 20 C-0.23368195 15.94166377 -0.11078449 11.95446495 -0.0625 7.75 C-0.05798828 7.00492187 -0.05347656 6.25984375 -0.04882812 5.4921875 C-0.03709246 3.6614236 -0.0191585 1.83070127 0 0 Z " fill="#0033A0" transform="translate(380,391)"/>
<path d="M0 0 C1.04341138 19.98712471 1.04341138 19.98712471 -5 27 C-11.02303007 32.19760449 -17.79989302 35.67942415 -24.89208984 39.18896484 C-26.06047394 39.77505524 -27.22885803 40.36114563 -28.43264771 40.96499634 C-31.61040843 42.55868544 -34.79302682 44.14243144 -37.97677946 45.72410917 C-41.31501716 47.38439402 -44.64899411 49.05319439 -47.98355103 50.72085571 C-53.57404802 53.51517076 -59.16759491 56.30329858 -64.76318359 59.08740234 C-71.2357367 62.30790137 -77.7040281 65.53682857 -84.16998899 68.7705406 C-91.06146937 72.2169552 -97.95597639 75.65727978 -104.85139894 79.09579897 C-106.83787155 80.08690245 -108.82377207 81.07914419 -110.80955124 82.0716362 C-114.49874049 83.91504321 -118.19128811 85.75161991 -121.88427734 87.58740234 C-123.53777191 88.41482941 -123.53777191 88.41482941 -125.22467041 89.25897217 C-126.22555695 89.75515045 -127.22644348 90.25132874 -128.25765991 90.76254272 C-129.13034704 91.19721045 -130.00303417 91.63187817 -130.90216637 92.07971764 C-133 93 -133 93 -135 93 C-135.34797903 83.21792283 -135.46708393 74.96338436 -130.4375 66.3125 C-123.712388 59.93226554 -114.47286469 56.09111482 -106.24804688 51.99462891 C-105.11838501 51.42804565 -103.98872314 50.8614624 -102.8248291 50.27770996 C-99.76111702 48.74134251 -96.69494253 47.20995444 -93.62814903 45.67974901 C-90.40881188 44.07263143 -87.19144566 42.46157631 -83.97375488 40.85116577 C-78.58224381 38.1535988 -73.18906841 35.45938254 -67.79492188 32.76708984 C-61.55640364 29.65329572 -55.32081438 26.5336958 -49.08667707 23.41114104 C-43.72235279 20.72444742 -38.35648251 18.04086151 -32.98929644 15.35988939 C-29.78821034 13.7609058 -26.58767561 12.16084404 -23.38853455 10.55797195 C-19.83356594 8.77707384 -16.27536536 7.00269877 -12.71679688 5.22900391 C-11.12411987 4.42962906 -11.12411987 4.42962906 -9.49926758 3.61410522 C-8.53492798 3.13475525 -7.57058838 2.65540527 -6.57702637 2.16152954 C-5.73643425 1.74161051 -4.89584213 1.32169147 -4.02977753 0.88904762 C-2 0 -2 0 0 0 Z " fill="#0033A0" transform="translate(802,391)"/>
<path d="M0 0 C5.51048893 1.62859881 10.46300568 4.08361895 15.58203125 6.64575195 C16.52911957 7.1159375 17.47620789 7.58612305 18.45199585 8.07055664 C21.57429395 9.62222627 24.69355465 11.17988453 27.8125 12.73828125 C29.98667608 13.82215499 32.16091199 14.90590874 34.33520508 15.98954773 C38.88928834 18.26060589 43.44170895 20.534959 47.99316406 22.8112793 C53.81974613 25.72467199 59.6517549 28.62701648 65.48524475 31.52654743 C69.97644593 33.76102 74.46398459 36.00277059 78.95053101 38.24657249 C81.09898746 39.31962212 83.24873901 40.39008284 85.39981079 41.45788002 C88.40972641 42.95302051 91.41438539 44.45825238 94.41796875 45.96606445 C95.3033432 46.40313217 96.18871765 46.84019989 97.10092163 47.29051208 C104.85311827 51.20606432 110.11854885 55.09334025 114 63 C115.23368195 67.05833623 115.11078449 71.04553505 115.0625 75.25 C115.05798828 75.99507812 115.05347656 76.74015625 115.04882812 77.5078125 C115.03709246 79.3385764 115.0191585 81.16929873 115 83 C109.49738164 81.37212678 104.54797418 78.92526227 99.43383789 76.37011719 C98.48835587 75.90153793 97.54287384 75.43295868 96.56874084 74.95018005 C93.45119444 73.40343121 90.33672791 71.85060653 87.22265625 70.296875 C85.05084673 69.21545513 82.87900689 68.13409616 80.70713806 67.05279541 C76.15718875 64.78605992 71.60900491 62.5158229 67.06176758 60.24365234 C61.24493255 57.33792692 55.42174767 54.44517895 49.59688663 51.55558395 C45.10927625 49.32667453 40.6262132 47.08873717 36.14434624 44.84830475 C33.9998604 43.7781606 31.85373091 42.71130346 29.70591927 41.64785004 C26.69763058 40.15718329 23.69596623 38.65391011 20.69555664 37.14746094 C19.81377747 36.71398849 18.93199829 36.28051605 18.02349854 35.83390808 C10.62014102 32.08844959 3.87125355 27.88570025 0.64453125 19.921875 C-0.79153374 13.41171372 -0.27374115 6.62301503 0 0 Z " fill="#0033A0" transform="translate(400,438)"/>
<path d="M0 0 C0.10901505 2.83439137 0.18777904 5.66450203 0.25 8.5 C0.28351563 9.29148437 0.31703125 10.08296875 0.3515625 10.8984375 C0.45882484 17.44144029 -0.8168673 22.63318454 -5.41176128 27.49322701 C-10.23324873 31.71817749 -15.39321837 34.54223892 -21.1262207 37.36279297 C-22.6152314 38.11025536 -22.6152314 38.11025536 -24.13432312 38.87281799 C-27.39337687 40.50568222 -30.65934733 42.12414421 -33.92578125 43.7421875 C-36.19822957 44.87628552 -38.47029346 46.01115415 -40.74198914 47.14675903 C-45.49073146 49.51805403 -50.24256755 51.88296791 -54.99731445 54.2421875 C-60.49625718 56.97071967 -65.99025553 59.70899574 -71.48150569 62.45297325 C-76.77241151 65.09680183 -82.0656689 67.73588759 -87.36025047 70.37234879 C-89.61143904 71.4934936 -91.86219374 72.61551003 -94.11251259 73.73839951 C-97.24655946 75.30092365 -100.38321328 76.85807606 -103.52075195 78.41357422 C-104.92413315 79.11476631 -104.92413315 79.11476631 -106.35586548 79.8301239 C-107.63218086 80.46080025 -107.63218086 80.46080025 -108.9342804 81.10421753 C-109.67552815 81.47251616 -110.41677591 81.84081478 -111.18048573 82.22027397 C-113 83 -113 83 -115 83 C-115.7355842 62.32191095 -115.7355842 62.32191095 -108 54 C-105.11710718 52.09308549 -102.05190812 50.58693025 -98.9609375 49.046875 C-97.49108902 48.29733551 -97.49108902 48.29733551 -95.99154663 47.53265381 C-93.03240704 46.02913076 -90.06740216 44.53831449 -87.09941101 43.05239868 C-84.83997409 41.91978176 -82.58269677 40.78294472 -80.32580566 39.64526367 C-68.41019357 33.63945249 -56.4774815 27.66820822 -44.53979492 21.7064209 C-40.60792611 19.74180381 -36.67756198 17.77418624 -32.7471714 15.80661392 C-28.95970125 13.91108084 -25.17128939 12.01743638 -21.3825798 10.12438202 C-19.57448328 9.2206674 -17.76668393 8.31635798 -15.95918655 7.41144562 C-13.46024081 6.16071258 -10.96004131 4.91252353 -8.45947266 3.66503906 C-7.71373993 3.29116058 -6.9680072 2.9172821 -6.19967651 2.53207397 C-1.11428188 0 -1.11428188 0 0 0 Z " fill="#0033A0" transform="translate(782,438)"/>
<path d="M0 0 C7.59 0 15.18 0 23 0 C23 33.33 23 66.66 23 101 C15.41 101 7.82 101 0 101 C0 67.67 0 34.34 0 0 Z " fill="#0033A0" transform="translate(768,535)"/>
<path d="M0 0 C7.59 0 15.18 0 23 0 C23 33.33 23 66.66 23 101 C15.41 101 7.82 101 0 101 C0 67.67 0 34.34 0 0 Z " fill="#0033A0" transform="translate(735,535)"/>
<path d="M0 0 C0.42936537 11.17940215 0.36591631 19.71016755 -7.23833466 28.307024 C-10.13492737 31.09067526 -13.39931504 32.73327337 -16.99316406 34.46655273 C-17.77111328 34.85771774 -18.5490625 35.24888275 -19.35058594 35.65190125 C-21.89819057 36.92799655 -24.45640608 38.18097678 -27.015625 39.43359375 C-28.79651835 40.31911248 -30.57676236 41.20593824 -32.35638428 42.0940094 C-36.07368148 43.94504234 -39.7958814 45.78564791 -43.52246094 47.61791992 C-48.30675226 49.9703191 -53.08214125 52.34012075 -57.854496 54.71662807 C-62.40539437 56.98212725 -66.96022896 59.23965535 -71.515625 61.49609375 C-72.38703377 61.92840239 -73.25844254 62.36071102 -74.15625763 62.80611992 C-76.61017208 64.02154593 -79.06677429 65.23133708 -81.52441406 66.43920898 C-82.25585632 66.80224121 -82.98729858 67.16527344 -83.74090576 67.53930664 C-88.77016203 70 -88.77016203 70 -91 70 C-91.51731761 51.14664702 -91.51731761 51.14664702 -85 43 C-80.75098799 39.13795406 -76.52270639 36.47424362 -71.38989258 33.9440918 C-70.28389961 33.38704308 -70.28389961 33.38704308 -69.15556335 32.81874084 C-66.7391017 31.60430123 -64.3170755 30.40147301 -61.89453125 29.19921875 C-60.2060917 28.35492144 -58.51791916 27.51008998 -56.83000183 26.66474915 C-53.30299995 24.90055789 -49.77328624 23.14195361 -46.24145508 21.38745117 C-41.71044495 19.13618558 -37.18581079 16.87243727 -32.66302967 14.60469341 C-29.18322739 12.86132019 -25.70050921 11.12384128 -22.21683311 9.38822365 C-20.54661094 8.55537255 -18.87722477 7.72084275 -17.20868874 6.88461876 C-14.882651 5.72014885 -12.55289363 4.5634939 -10.22192383 3.40893555 C-9.5314798 3.06146271 -8.84103577 2.71398987 -8.12966919 2.35598755 C-5.22302871 0.92533852 -3.28520825 0 0 0 Z " fill="#0033A0" transform="translate(738,498)"/>
<path d="M0 0 C4.69062231 1.43886663 9.01637629 3.35718619 13.39477539 5.54418945 C14.10938431 5.89733215 14.82399323 6.25047485 15.56025696 6.61431885 C17.90823053 7.7763146 20.25313798 8.9443311 22.59765625 10.11328125 C24.23617177 10.9280525 25.87471695 11.7427641 27.51329041 12.55741882 C30.94174615 14.26341724 34.36843973 15.97290104 37.79418945 17.68432617 C42.17635439 19.87271358 46.56483856 22.04809489 50.95501041 24.22036457 C54.33936281 25.89764798 57.71916149 27.58395026 61.09777641 29.27275658 C62.71361032 30.07857517 64.33108744 30.88110775 65.950243 31.68023109 C68.21656236 32.79991541 70.4761753 33.93215945 72.73461914 35.06762695 C73.39917114 35.39248581 74.06372314 35.71734467 74.74841309 36.05204773 C81.25490779 39.35645648 86.67973916 44.14483834 89.07421875 51.13671875 C90.05366607 55.22394828 90.19923833 58.74303414 90.125 62.9375 C90.11597656 63.62134766 90.10695313 64.30519531 90.09765625 65.00976562 C90.07438958 66.67333287 90.03853167 68.33671631 90 70 C85.31296652 68.56279594 80.99379151 66.64515757 76.62109375 64.45581055 C75.90809113 64.10266785 75.1950885 63.74952515 74.46047974 63.38568115 C72.11736327 62.22357796 69.77727679 61.05552993 67.4375 59.88671875 C65.80140915 59.07188928 64.16525913 58.2571786 62.52905273 57.44258118 C59.10485366 55.73645899 55.68231608 54.02705414 52.26074219 52.31567383 C47.88696924 50.12868572 43.50779551 47.95275883 39.12712097 45.77963543 C35.74766755 44.10105287 32.37189588 42.41516915 28.99710083 40.72724342 C27.38453311 39.92213573 25.77067461 39.11960779 24.15548706 38.31976891 C21.89273281 37.19824211 19.63532129 36.0665882 17.37890625 34.93237305 C16.71794952 34.60751419 16.0569928 34.28265533 15.37600708 33.94795227 C8.9459039 30.6895546 3.74130926 26.90884431 0.69726562 20.203125 C-0.53527936 16.30869716 -0.42129006 12.54508058 -0.25 8.5 C-0.23195313 7.67757813 -0.21390625 6.85515625 -0.1953125 6.0078125 C-0.1487283 4.00469196 -0.07700699 2.00218179 0 0 Z " fill="#0033A0" transform="translate(445,498)"/>
<path d="M0 0 C31.35 0 62.7 0 95 0 C95 7.59 95 15.18 95 23 C63.65 23 32.3 23 0 23 C0 15.41 0 7.82 0 0 Z " fill="#0033A0" transform="translate(347,602)"/>
<path d="M0 0 C31.35 0 62.7 0 95 0 C95 7.59 95 15.18 95 23 C63.65 23 32.3 23 0 23 C0 15.41 0 7.82 0 0 Z " fill="#0033A0" transform="translate(347,568)"/>
<path d="M0 0 C31.35 0 62.7 0 95 0 C95 7.59 95 15.18 95 23 C63.65 23 32.3 23 0 23 C0 15.41 0 7.82 0 0 Z " fill="#0033A0" transform="translate(347,535)"/>
<path d="M0 0 C18.13476563 31.73583984 18.13476563 31.73583984 19.1749115 33.5561676 C19.85871695 34.75277893 20.54260529 35.94934289 21.22657776 37.14585876 C22.89967075 40.0729359 24.5713552 43.00079885 26.23999023 45.93041992 C29.36506566 51.41225004 32.50832895 56.88106424 35.70703125 62.3203125 C36.27583008 63.29427979 36.84462891 64.26824707 37.43066406 65.27172852 C38.49061111 67.08445363 39.55854011 68.89254353 40.63574219 70.69506836 C41.09754883 71.48792236 41.55935547 72.28077637 42.03515625 73.09765625 C42.4412915 73.78351807 42.84742676 74.46937988 43.26586914 75.17602539 C44 77 44 77 43 80 C41.23413086 81.25854492 41.23413086 81.25854492 38.96484375 82.48046875 C38.15595703 82.92197266 37.34707031 83.36347656 36.51367188 83.81835938 C35.66353516 84.27017578 34.81339844 84.72199219 33.9375 85.1875 C33.08349609 85.65091797 32.22949219 86.11433594 31.34960938 86.59179688 C29.23747273 87.73636254 27.12098933 88.87194884 25 90 C22.01114732 87.22262654 19.98949092 84.56071009 18.0390625 80.984375 C17.4925 79.99308594 16.9459375 79.00179687 16.3828125 77.98046875 C15.80273438 76.91441406 15.22265625 75.84835937 14.625 74.75 C13.3690496 72.47293027 12.11118839 70.19691359 10.8515625 67.921875 C10.37121552 67.05290588 10.37121552 67.05290588 9.88116455 66.16638184 C6.6797311 60.38958019 3.3494565 54.69180008 0 49 C-7.1846017 36.76819517 -14.11284161 24.40131415 -21 12 C-17.15651589 8.74951058 -13.17601471 6.21217131 -8.8125 3.75 C-8.18408203 3.38648438 -7.55566406 3.02296875 -6.90820312 2.6484375 C-2.25352444 0 -2.25352444 0 0 0 Z " fill="#0033A0" transform="translate(816,546)"/>
<path d="M0 0 C0.66391835 20.26180443 0.66391835 20.26180443 -6.3503418 28.45166016 C-9.66814908 31.56569505 -13.76443909 33.37552451 -17.8125 35.375 C-19.27864746 36.1179834 -19.27864746 36.1179834 -20.77441406 36.87597656 C-22.95341672 37.97723631 -25.13575011 39.07192246 -27.32080078 40.16113281 C-30.6662996 41.82880827 -33.99888358 43.52113524 -37.32987976 45.21755981 C-40.2454936 46.7014328 -43.16434442 48.17885019 -46.08407593 49.65460205 C-47.52621369 50.38395114 -48.96764345 51.11470189 -50.40835571 51.84686279 C-52.44107905 52.8780262 -54.47770529 53.90102799 -56.515625 54.921875 C-57.69415039 55.51581055 -58.87267578 56.10974609 -60.08691406 56.72167969 C-63 58 -63 58 -66 58 C-66.52414971 38.89765492 -66.52414971 38.89765492 -60 31 C-54.10103353 25.82138864 -47.34821733 22.39558199 -40.3515625 18.9453125 C-39.25782318 18.39890106 -38.16408386 17.85248962 -37.03720093 17.28952026 C-34.74137523 16.14461208 -32.44361961 15.00356649 -30.14404297 13.86621094 C-26.61086157 12.11800435 -23.08435119 10.3568736 -19.55859375 8.59375 C-17.32329453 7.48101144 -15.08763027 6.36900582 -12.8515625 5.2578125 C-11.79329254 4.72979034 -10.73502258 4.20176819 -9.64468384 3.65774536 C-8.66961884 3.17659271 -7.69455383 2.69544006 -6.68994141 2.19970703 C-5.83026764 1.77368195 -4.97059387 1.34765686 -4.08486938 0.90872192 C-2 0 -2 0 0 0 Z " fill="#0033A0" transform="translate(713,547)"/>
<path d="M0 0 C9.57654795 2.77526528 18.47364729 7.93313547 27.37548828 12.33764648 C29.7006616 13.48368733 32.03009264 14.62113158 34.36376953 15.74975586 C37.74993304 17.38776636 41.12195444 19.05215847 44.4921875 20.72265625 C45.52576385 21.21677505 46.55934021 21.71089386 47.62423706 22.21998596 C55.55697125 26.20939794 61.98965572 31.19517191 65.4921875 39.56640625 C66.06082889 43.41129686 66.19377963 47.05145106 66.125 50.9375 C66.11597656 51.62134766 66.10695313 52.30519531 66.09765625 53.00976562 C66.07438958 54.67333287 66.03853167 56.33671631 66 58 C59.87545095 56.24350831 54.33483648 53.33841284 48.65234375 50.51171875 C47.56288956 49.97150589 46.47343536 49.43129303 45.35096741 48.87471008 C43.05279811 47.73286507 40.75573726 46.58878672 38.4597168 45.44262695 C34.95139384 43.69442333 31.43588677 41.96128741 27.91992188 40.22851562 C25.68443701 39.1155044 23.44939573 38.00160171 21.21484375 36.88671875 C20.16578354 36.3719548 19.11672333 35.85719086 18.03587341 35.326828 C12.87136855 32.72858216 8.75080787 30.42971323 5 26 C4.443125 25.38125 3.88625 24.7625 3.3125 24.125 C0.02272033 18.79869005 -0.23318837 13.17514309 -0.125 7.0625 C-0.11597656 6.37865234 -0.10695313 5.69480469 -0.09765625 4.99023438 C-0.07438958 3.32666713 -0.03853167 1.66328369 0 0 Z " fill="#0033A0" transform="translate(469,547)"/>
</svg>
